G04 #@! TF.GenerationSoftware,KiCad,Pcbnew,(5.1.2)-1*
G04 #@! TF.CreationDate,2019-07-26T16:38:25-05:00*
G04 #@! TF.ProjectId,Austin_Christman_BIZ_Card,41757374-696e-45f4-9368-726973746d61,rev?*
G04 #@! TF.SameCoordinates,Original*
G04 #@! TF.FileFunction,Soldermask,Top*
G04 #@! TF.FilePolarity,Negative*
%FSLAX46Y46*%
G04 Gerber Fmt 4.6, Leading zero omitted, Abs format (unit mm)*
G04 Created by KiCad (PCBNEW (5.1.2)-1) date 2019-07-26 16:38:25*
%MOMM*%
%LPD*%
G04 APERTURE LIST*
%ADD10R,5.257800X6.223000*%
%ADD11R,5.257800X10.312400*%
%ADD12R,1.854200X0.635000*%
%ADD13R,6.350000X3.610000*%
%ADD14R,0.304800X1.676400*%
%ADD15R,0.800000X4.600000*%
%ADD16R,10.800000X9.400000*%
%ADD17R,1.000000X1.000000*%
%ADD18C,0.100000*%
%ADD19C,0.950000*%
%ADD20R,1.750000X0.550000*%
%ADD21C,1.524000*%
G04 APERTURE END LIST*
D10*
X160274000Y-104749600D03*
D11*
X154178000Y-100584000D03*
D10*
X160274000Y-96418400D03*
D12*
X166230300Y-93583999D03*
X166230300Y-94583999D03*
X166230300Y-95584000D03*
X166230300Y-96584000D03*
X166230300Y-97584001D03*
X166230300Y-98583999D03*
X166230300Y-99583999D03*
X166230300Y-100584000D03*
X166230300Y-101584001D03*
X166230300Y-102584001D03*
X166230300Y-103583999D03*
X166230300Y-104584000D03*
X166230300Y-105584000D03*
X166230300Y-106584001D03*
X166230300Y-107583999D03*
X148221700Y-107584001D03*
X148221700Y-106584001D03*
X148221700Y-105584000D03*
X148221700Y-104584000D03*
X148221700Y-103583999D03*
X148221700Y-102584001D03*
X148221700Y-101584001D03*
X148221700Y-100584000D03*
X148221700Y-99583999D03*
X148221700Y-98583999D03*
X148221700Y-97584001D03*
X148221700Y-96584000D03*
X148221700Y-95584000D03*
X148221700Y-94583999D03*
X148221700Y-93584001D03*
D13*
X119634000Y-106426000D03*
D14*
X112884014Y-102755700D03*
X113384012Y-102755700D03*
X113884012Y-102755700D03*
X114384010Y-102755700D03*
X114884010Y-102755700D03*
X115384009Y-102755700D03*
X115884008Y-102755700D03*
X116384006Y-102755700D03*
X116884006Y-102755700D03*
X117384004Y-102755700D03*
X117884004Y-102755700D03*
X118384003Y-102755700D03*
X118884002Y-102755700D03*
X119384000Y-102755700D03*
X119884000Y-102755700D03*
X120383998Y-102755700D03*
X120883997Y-102755700D03*
X121383996Y-102755700D03*
X121883996Y-102755700D03*
X122383994Y-102755700D03*
X122883994Y-102755700D03*
X123383992Y-102755700D03*
X123883991Y-102755700D03*
X124383990Y-102755700D03*
X124883990Y-102755700D03*
X125383988Y-102755700D03*
X125883988Y-102755700D03*
X126383986Y-102755700D03*
X126383986Y-110096300D03*
X125883988Y-110096300D03*
X125383988Y-110096300D03*
X124883990Y-110096300D03*
X124383990Y-110096300D03*
X123883991Y-110096300D03*
X123383992Y-110096300D03*
X122883994Y-110096300D03*
X122383994Y-110096300D03*
X121883996Y-110096300D03*
X121383996Y-110096300D03*
X120883997Y-110096300D03*
X120383998Y-110096300D03*
X119884000Y-110096300D03*
X119384000Y-110096300D03*
X118884002Y-110096300D03*
X118384003Y-110096300D03*
X117884004Y-110096300D03*
X117384004Y-110096300D03*
X116884006Y-110096300D03*
X116384006Y-110096300D03*
X115884008Y-110096300D03*
X115384009Y-110096300D03*
X114884010Y-110096300D03*
X114384010Y-110096300D03*
X113884012Y-110096300D03*
X113384012Y-110096300D03*
X112884014Y-110096300D03*
D15*
X186944000Y-108525000D03*
X185674000Y-108525000D03*
X184404000Y-108525000D03*
X181864000Y-108525000D03*
X180594000Y-108525000D03*
X179324000Y-108525000D03*
D16*
X183134000Y-117675000D03*
D17*
X110617000Y-116713000D03*
X110617000Y-119213000D03*
X124396500Y-118618000D03*
X124396500Y-121118000D03*
D18*
G36*
X108972779Y-116203144D02*
G01*
X108995834Y-116206563D01*
X109018443Y-116212227D01*
X109040387Y-116220079D01*
X109061457Y-116230044D01*
X109081448Y-116242026D01*
X109100168Y-116255910D01*
X109117438Y-116271562D01*
X109133090Y-116288832D01*
X109146974Y-116307552D01*
X109158956Y-116327543D01*
X109168921Y-116348613D01*
X109176773Y-116370557D01*
X109182437Y-116393166D01*
X109185856Y-116416221D01*
X109187000Y-116439500D01*
X109187000Y-117014500D01*
X109185856Y-117037779D01*
X109182437Y-117060834D01*
X109176773Y-117083443D01*
X109168921Y-117105387D01*
X109158956Y-117126457D01*
X109146974Y-117146448D01*
X109133090Y-117165168D01*
X109117438Y-117182438D01*
X109100168Y-117198090D01*
X109081448Y-117211974D01*
X109061457Y-117223956D01*
X109040387Y-117233921D01*
X109018443Y-117241773D01*
X108995834Y-117247437D01*
X108972779Y-117250856D01*
X108949500Y-117252000D01*
X108474500Y-117252000D01*
X108451221Y-117250856D01*
X108428166Y-117247437D01*
X108405557Y-117241773D01*
X108383613Y-117233921D01*
X108362543Y-117223956D01*
X108342552Y-117211974D01*
X108323832Y-117198090D01*
X108306562Y-117182438D01*
X108290910Y-117165168D01*
X108277026Y-117146448D01*
X108265044Y-117126457D01*
X108255079Y-117105387D01*
X108247227Y-117083443D01*
X108241563Y-117060834D01*
X108238144Y-117037779D01*
X108237000Y-117014500D01*
X108237000Y-116439500D01*
X108238144Y-116416221D01*
X108241563Y-116393166D01*
X108247227Y-116370557D01*
X108255079Y-116348613D01*
X108265044Y-116327543D01*
X108277026Y-116307552D01*
X108290910Y-116288832D01*
X108306562Y-116271562D01*
X108323832Y-116255910D01*
X108342552Y-116242026D01*
X108362543Y-116230044D01*
X108383613Y-116220079D01*
X108405557Y-116212227D01*
X108428166Y-116206563D01*
X108451221Y-116203144D01*
X108474500Y-116202000D01*
X108949500Y-116202000D01*
X108972779Y-116203144D01*
X108972779Y-116203144D01*
G37*
D19*
X108712000Y-116727000D03*
D18*
G36*
X108972779Y-117953144D02*
G01*
X108995834Y-117956563D01*
X109018443Y-117962227D01*
X109040387Y-117970079D01*
X109061457Y-117980044D01*
X109081448Y-117992026D01*
X109100168Y-118005910D01*
X109117438Y-118021562D01*
X109133090Y-118038832D01*
X109146974Y-118057552D01*
X109158956Y-118077543D01*
X109168921Y-118098613D01*
X109176773Y-118120557D01*
X109182437Y-118143166D01*
X109185856Y-118166221D01*
X109187000Y-118189500D01*
X109187000Y-118764500D01*
X109185856Y-118787779D01*
X109182437Y-118810834D01*
X109176773Y-118833443D01*
X109168921Y-118855387D01*
X109158956Y-118876457D01*
X109146974Y-118896448D01*
X109133090Y-118915168D01*
X109117438Y-118932438D01*
X109100168Y-118948090D01*
X109081448Y-118961974D01*
X109061457Y-118973956D01*
X109040387Y-118983921D01*
X109018443Y-118991773D01*
X108995834Y-118997437D01*
X108972779Y-119000856D01*
X108949500Y-119002000D01*
X108474500Y-119002000D01*
X108451221Y-119000856D01*
X108428166Y-118997437D01*
X108405557Y-118991773D01*
X108383613Y-118983921D01*
X108362543Y-118973956D01*
X108342552Y-118961974D01*
X108323832Y-118948090D01*
X108306562Y-118932438D01*
X108290910Y-118915168D01*
X108277026Y-118896448D01*
X108265044Y-118876457D01*
X108255079Y-118855387D01*
X108247227Y-118833443D01*
X108241563Y-118810834D01*
X108238144Y-118787779D01*
X108237000Y-118764500D01*
X108237000Y-118189500D01*
X108238144Y-118166221D01*
X108241563Y-118143166D01*
X108247227Y-118120557D01*
X108255079Y-118098613D01*
X108265044Y-118077543D01*
X108277026Y-118057552D01*
X108290910Y-118038832D01*
X108306562Y-118021562D01*
X108323832Y-118005910D01*
X108342552Y-117992026D01*
X108362543Y-117980044D01*
X108383613Y-117970079D01*
X108405557Y-117962227D01*
X108428166Y-117956563D01*
X108451221Y-117953144D01*
X108474500Y-117952000D01*
X108949500Y-117952000D01*
X108972779Y-117953144D01*
X108972779Y-117953144D01*
G37*
D19*
X108712000Y-118477000D03*
D18*
G36*
X112782779Y-116203144D02*
G01*
X112805834Y-116206563D01*
X112828443Y-116212227D01*
X112850387Y-116220079D01*
X112871457Y-116230044D01*
X112891448Y-116242026D01*
X112910168Y-116255910D01*
X112927438Y-116271562D01*
X112943090Y-116288832D01*
X112956974Y-116307552D01*
X112968956Y-116327543D01*
X112978921Y-116348613D01*
X112986773Y-116370557D01*
X112992437Y-116393166D01*
X112995856Y-116416221D01*
X112997000Y-116439500D01*
X112997000Y-117014500D01*
X112995856Y-117037779D01*
X112992437Y-117060834D01*
X112986773Y-117083443D01*
X112978921Y-117105387D01*
X112968956Y-117126457D01*
X112956974Y-117146448D01*
X112943090Y-117165168D01*
X112927438Y-117182438D01*
X112910168Y-117198090D01*
X112891448Y-117211974D01*
X112871457Y-117223956D01*
X112850387Y-117233921D01*
X112828443Y-117241773D01*
X112805834Y-117247437D01*
X112782779Y-117250856D01*
X112759500Y-117252000D01*
X112284500Y-117252000D01*
X112261221Y-117250856D01*
X112238166Y-117247437D01*
X112215557Y-117241773D01*
X112193613Y-117233921D01*
X112172543Y-117223956D01*
X112152552Y-117211974D01*
X112133832Y-117198090D01*
X112116562Y-117182438D01*
X112100910Y-117165168D01*
X112087026Y-117146448D01*
X112075044Y-117126457D01*
X112065079Y-117105387D01*
X112057227Y-117083443D01*
X112051563Y-117060834D01*
X112048144Y-117037779D01*
X112047000Y-117014500D01*
X112047000Y-116439500D01*
X112048144Y-116416221D01*
X112051563Y-116393166D01*
X112057227Y-116370557D01*
X112065079Y-116348613D01*
X112075044Y-116327543D01*
X112087026Y-116307552D01*
X112100910Y-116288832D01*
X112116562Y-116271562D01*
X112133832Y-116255910D01*
X112152552Y-116242026D01*
X112172543Y-116230044D01*
X112193613Y-116220079D01*
X112215557Y-116212227D01*
X112238166Y-116206563D01*
X112261221Y-116203144D01*
X112284500Y-116202000D01*
X112759500Y-116202000D01*
X112782779Y-116203144D01*
X112782779Y-116203144D01*
G37*
D19*
X112522000Y-116727000D03*
D18*
G36*
X112782779Y-117953144D02*
G01*
X112805834Y-117956563D01*
X112828443Y-117962227D01*
X112850387Y-117970079D01*
X112871457Y-117980044D01*
X112891448Y-117992026D01*
X112910168Y-118005910D01*
X112927438Y-118021562D01*
X112943090Y-118038832D01*
X112956974Y-118057552D01*
X112968956Y-118077543D01*
X112978921Y-118098613D01*
X112986773Y-118120557D01*
X112992437Y-118143166D01*
X112995856Y-118166221D01*
X112997000Y-118189500D01*
X112997000Y-118764500D01*
X112995856Y-118787779D01*
X112992437Y-118810834D01*
X112986773Y-118833443D01*
X112978921Y-118855387D01*
X112968956Y-118876457D01*
X112956974Y-118896448D01*
X112943090Y-118915168D01*
X112927438Y-118932438D01*
X112910168Y-118948090D01*
X112891448Y-118961974D01*
X112871457Y-118973956D01*
X112850387Y-118983921D01*
X112828443Y-118991773D01*
X112805834Y-118997437D01*
X112782779Y-119000856D01*
X112759500Y-119002000D01*
X112284500Y-119002000D01*
X112261221Y-119000856D01*
X112238166Y-118997437D01*
X112215557Y-118991773D01*
X112193613Y-118983921D01*
X112172543Y-118973956D01*
X112152552Y-118961974D01*
X112133832Y-118948090D01*
X112116562Y-118932438D01*
X112100910Y-118915168D01*
X112087026Y-118896448D01*
X112075044Y-118876457D01*
X112065079Y-118855387D01*
X112057227Y-118833443D01*
X112051563Y-118810834D01*
X112048144Y-118787779D01*
X112047000Y-118764500D01*
X112047000Y-118189500D01*
X112048144Y-118166221D01*
X112051563Y-118143166D01*
X112057227Y-118120557D01*
X112065079Y-118098613D01*
X112075044Y-118077543D01*
X112087026Y-118057552D01*
X112100910Y-118038832D01*
X112116562Y-118021562D01*
X112133832Y-118005910D01*
X112152552Y-117992026D01*
X112172543Y-117980044D01*
X112193613Y-117970079D01*
X112215557Y-117962227D01*
X112238166Y-117956563D01*
X112261221Y-117953144D01*
X112284500Y-117952000D01*
X112759500Y-117952000D01*
X112782779Y-117953144D01*
X112782779Y-117953144D01*
G37*
D19*
X112522000Y-118477000D03*
D18*
G36*
X126625779Y-118376144D02*
G01*
X126648834Y-118379563D01*
X126671443Y-118385227D01*
X126693387Y-118393079D01*
X126714457Y-118403044D01*
X126734448Y-118415026D01*
X126753168Y-118428910D01*
X126770438Y-118444562D01*
X126786090Y-118461832D01*
X126799974Y-118480552D01*
X126811956Y-118500543D01*
X126821921Y-118521613D01*
X126829773Y-118543557D01*
X126835437Y-118566166D01*
X126838856Y-118589221D01*
X126840000Y-118612500D01*
X126840000Y-119187500D01*
X126838856Y-119210779D01*
X126835437Y-119233834D01*
X126829773Y-119256443D01*
X126821921Y-119278387D01*
X126811956Y-119299457D01*
X126799974Y-119319448D01*
X126786090Y-119338168D01*
X126770438Y-119355438D01*
X126753168Y-119371090D01*
X126734448Y-119384974D01*
X126714457Y-119396956D01*
X126693387Y-119406921D01*
X126671443Y-119414773D01*
X126648834Y-119420437D01*
X126625779Y-119423856D01*
X126602500Y-119425000D01*
X126127500Y-119425000D01*
X126104221Y-119423856D01*
X126081166Y-119420437D01*
X126058557Y-119414773D01*
X126036613Y-119406921D01*
X126015543Y-119396956D01*
X125995552Y-119384974D01*
X125976832Y-119371090D01*
X125959562Y-119355438D01*
X125943910Y-119338168D01*
X125930026Y-119319448D01*
X125918044Y-119299457D01*
X125908079Y-119278387D01*
X125900227Y-119256443D01*
X125894563Y-119233834D01*
X125891144Y-119210779D01*
X125890000Y-119187500D01*
X125890000Y-118612500D01*
X125891144Y-118589221D01*
X125894563Y-118566166D01*
X125900227Y-118543557D01*
X125908079Y-118521613D01*
X125918044Y-118500543D01*
X125930026Y-118480552D01*
X125943910Y-118461832D01*
X125959562Y-118444562D01*
X125976832Y-118428910D01*
X125995552Y-118415026D01*
X126015543Y-118403044D01*
X126036613Y-118393079D01*
X126058557Y-118385227D01*
X126081166Y-118379563D01*
X126104221Y-118376144D01*
X126127500Y-118375000D01*
X126602500Y-118375000D01*
X126625779Y-118376144D01*
X126625779Y-118376144D01*
G37*
D19*
X126365000Y-118900000D03*
D18*
G36*
X126625779Y-120126144D02*
G01*
X126648834Y-120129563D01*
X126671443Y-120135227D01*
X126693387Y-120143079D01*
X126714457Y-120153044D01*
X126734448Y-120165026D01*
X126753168Y-120178910D01*
X126770438Y-120194562D01*
X126786090Y-120211832D01*
X126799974Y-120230552D01*
X126811956Y-120250543D01*
X126821921Y-120271613D01*
X126829773Y-120293557D01*
X126835437Y-120316166D01*
X126838856Y-120339221D01*
X126840000Y-120362500D01*
X126840000Y-120937500D01*
X126838856Y-120960779D01*
X126835437Y-120983834D01*
X126829773Y-121006443D01*
X126821921Y-121028387D01*
X126811956Y-121049457D01*
X126799974Y-121069448D01*
X126786090Y-121088168D01*
X126770438Y-121105438D01*
X126753168Y-121121090D01*
X126734448Y-121134974D01*
X126714457Y-121146956D01*
X126693387Y-121156921D01*
X126671443Y-121164773D01*
X126648834Y-121170437D01*
X126625779Y-121173856D01*
X126602500Y-121175000D01*
X126127500Y-121175000D01*
X126104221Y-121173856D01*
X126081166Y-121170437D01*
X126058557Y-121164773D01*
X126036613Y-121156921D01*
X126015543Y-121146956D01*
X125995552Y-121134974D01*
X125976832Y-121121090D01*
X125959562Y-121105438D01*
X125943910Y-121088168D01*
X125930026Y-121069448D01*
X125918044Y-121049457D01*
X125908079Y-121028387D01*
X125900227Y-121006443D01*
X125894563Y-120983834D01*
X125891144Y-120960779D01*
X125890000Y-120937500D01*
X125890000Y-120362500D01*
X125891144Y-120339221D01*
X125894563Y-120316166D01*
X125900227Y-120293557D01*
X125908079Y-120271613D01*
X125918044Y-120250543D01*
X125930026Y-120230552D01*
X125943910Y-120211832D01*
X125959562Y-120194562D01*
X125976832Y-120178910D01*
X125995552Y-120165026D01*
X126015543Y-120153044D01*
X126036613Y-120143079D01*
X126058557Y-120135227D01*
X126081166Y-120129563D01*
X126104221Y-120126144D01*
X126127500Y-120125000D01*
X126602500Y-120125000D01*
X126625779Y-120126144D01*
X126625779Y-120126144D01*
G37*
D19*
X126365000Y-120650000D03*
D20*
X122127500Y-121221500D03*
X122127500Y-119951500D03*
X122127500Y-118681500D03*
X122127500Y-117411500D03*
X114727500Y-117411500D03*
X114727500Y-118681500D03*
X114727500Y-119951500D03*
X114727500Y-121221500D03*
D18*
G36*
X112782779Y-119568644D02*
G01*
X112805834Y-119572063D01*
X112828443Y-119577727D01*
X112850387Y-119585579D01*
X112871457Y-119595544D01*
X112891448Y-119607526D01*
X112910168Y-119621410D01*
X112927438Y-119637062D01*
X112943090Y-119654332D01*
X112956974Y-119673052D01*
X112968956Y-119693043D01*
X112978921Y-119714113D01*
X112986773Y-119736057D01*
X112992437Y-119758666D01*
X112995856Y-119781721D01*
X112997000Y-119805000D01*
X112997000Y-120380000D01*
X112995856Y-120403279D01*
X112992437Y-120426334D01*
X112986773Y-120448943D01*
X112978921Y-120470887D01*
X112968956Y-120491957D01*
X112956974Y-120511948D01*
X112943090Y-120530668D01*
X112927438Y-120547938D01*
X112910168Y-120563590D01*
X112891448Y-120577474D01*
X112871457Y-120589456D01*
X112850387Y-120599421D01*
X112828443Y-120607273D01*
X112805834Y-120612937D01*
X112782779Y-120616356D01*
X112759500Y-120617500D01*
X112284500Y-120617500D01*
X112261221Y-120616356D01*
X112238166Y-120612937D01*
X112215557Y-120607273D01*
X112193613Y-120599421D01*
X112172543Y-120589456D01*
X112152552Y-120577474D01*
X112133832Y-120563590D01*
X112116562Y-120547938D01*
X112100910Y-120530668D01*
X112087026Y-120511948D01*
X112075044Y-120491957D01*
X112065079Y-120470887D01*
X112057227Y-120448943D01*
X112051563Y-120426334D01*
X112048144Y-120403279D01*
X112047000Y-120380000D01*
X112047000Y-119805000D01*
X112048144Y-119781721D01*
X112051563Y-119758666D01*
X112057227Y-119736057D01*
X112065079Y-119714113D01*
X112075044Y-119693043D01*
X112087026Y-119673052D01*
X112100910Y-119654332D01*
X112116562Y-119637062D01*
X112133832Y-119621410D01*
X112152552Y-119607526D01*
X112172543Y-119595544D01*
X112193613Y-119585579D01*
X112215557Y-119577727D01*
X112238166Y-119572063D01*
X112261221Y-119568644D01*
X112284500Y-119567500D01*
X112759500Y-119567500D01*
X112782779Y-119568644D01*
X112782779Y-119568644D01*
G37*
D19*
X112522000Y-120092500D03*
D18*
G36*
X112782779Y-121318644D02*
G01*
X112805834Y-121322063D01*
X112828443Y-121327727D01*
X112850387Y-121335579D01*
X112871457Y-121345544D01*
X112891448Y-121357526D01*
X112910168Y-121371410D01*
X112927438Y-121387062D01*
X112943090Y-121404332D01*
X112956974Y-121423052D01*
X112968956Y-121443043D01*
X112978921Y-121464113D01*
X112986773Y-121486057D01*
X112992437Y-121508666D01*
X112995856Y-121531721D01*
X112997000Y-121555000D01*
X112997000Y-122130000D01*
X112995856Y-122153279D01*
X112992437Y-122176334D01*
X112986773Y-122198943D01*
X112978921Y-122220887D01*
X112968956Y-122241957D01*
X112956974Y-122261948D01*
X112943090Y-122280668D01*
X112927438Y-122297938D01*
X112910168Y-122313590D01*
X112891448Y-122327474D01*
X112871457Y-122339456D01*
X112850387Y-122349421D01*
X112828443Y-122357273D01*
X112805834Y-122362937D01*
X112782779Y-122366356D01*
X112759500Y-122367500D01*
X112284500Y-122367500D01*
X112261221Y-122366356D01*
X112238166Y-122362937D01*
X112215557Y-122357273D01*
X112193613Y-122349421D01*
X112172543Y-122339456D01*
X112152552Y-122327474D01*
X112133832Y-122313590D01*
X112116562Y-122297938D01*
X112100910Y-122280668D01*
X112087026Y-122261948D01*
X112075044Y-122241957D01*
X112065079Y-122220887D01*
X112057227Y-122198943D01*
X112051563Y-122176334D01*
X112048144Y-122153279D01*
X112047000Y-122130000D01*
X112047000Y-121555000D01*
X112048144Y-121531721D01*
X112051563Y-121508666D01*
X112057227Y-121486057D01*
X112065079Y-121464113D01*
X112075044Y-121443043D01*
X112087026Y-121423052D01*
X112100910Y-121404332D01*
X112116562Y-121387062D01*
X112133832Y-121371410D01*
X112152552Y-121357526D01*
X112172543Y-121345544D01*
X112193613Y-121335579D01*
X112215557Y-121327727D01*
X112238166Y-121322063D01*
X112261221Y-121318644D01*
X112284500Y-121317500D01*
X112759500Y-121317500D01*
X112782779Y-121318644D01*
X112782779Y-121318644D01*
G37*
D19*
X112522000Y-121842500D03*
D21*
X185166000Y-94488000D03*
X185166000Y-91948000D03*
X185166000Y-89408000D03*
X185166000Y-86868000D03*
X185166000Y-84328000D03*
X185166000Y-81788000D03*
X185166000Y-79248000D03*
X185166000Y-76708000D03*
X185166000Y-74168000D03*
M02*
