G04 #@! TF.GenerationSoftware,KiCad,Pcbnew,(5.1.2)-1*
G04 #@! TF.CreationDate,2019-07-26T16:38:25-05:00*
G04 #@! TF.ProjectId,Austin_Christman_BIZ_Card,41757374-696e-45f4-9368-726973746d61,rev?*
G04 #@! TF.SameCoordinates,Original*
G04 #@! TF.FileFunction,Legend,Bot*
G04 #@! TF.FilePolarity,Positive*
%FSLAX46Y46*%
G04 Gerber Fmt 4.6, Leading zero omitted, Abs format (unit mm)*
G04 Created by KiCad (PCBNEW (5.1.2)-1) date 2019-07-26 16:38:25*
%MOMM*%
%LPD*%
G04 APERTURE LIST*
%ADD10C,0.010000*%
%ADD11C,0.150000*%
G04 APERTURE END LIST*
D10*
G36*
X116284510Y-69774527D02*
G01*
X115957232Y-69821730D01*
X115690764Y-69899198D01*
X115650119Y-69916798D01*
X115487000Y-69992387D01*
X115637000Y-69967014D01*
X116159057Y-69908464D01*
X116648045Y-69912363D01*
X117081752Y-69978467D01*
X117099660Y-69982913D01*
X117605063Y-70149118D01*
X118131727Y-70398170D01*
X118681448Y-70731532D01*
X119256023Y-71150665D01*
X119857249Y-71657032D01*
X120486921Y-72252095D01*
X121146837Y-72937317D01*
X121838793Y-73714160D01*
X122183596Y-74120923D01*
X122503038Y-74506726D01*
X122808218Y-74882942D01*
X123103918Y-75256484D01*
X123394921Y-75634265D01*
X123686009Y-76023199D01*
X123981965Y-76430197D01*
X124287570Y-76862175D01*
X124607608Y-77326044D01*
X124946861Y-77828718D01*
X125310111Y-78377111D01*
X125702141Y-78978135D01*
X126127732Y-79638703D01*
X126591668Y-80365729D01*
X127098730Y-81166127D01*
X127524850Y-81842000D01*
X128496573Y-83408974D01*
X129431194Y-84962400D01*
X130313689Y-86477203D01*
X130535789Y-86867000D01*
X130736508Y-87219175D01*
X130969048Y-87624226D01*
X131214265Y-88048990D01*
X131453015Y-88460304D01*
X131662500Y-88818781D01*
X131871150Y-89176452D01*
X132100027Y-89572551D01*
X132331468Y-89976262D01*
X132547808Y-90356766D01*
X132731381Y-90683246D01*
X132737254Y-90693781D01*
X132895573Y-90977341D01*
X133045765Y-91245448D01*
X133177838Y-91480331D01*
X133281799Y-91664222D01*
X133347656Y-91779351D01*
X133349729Y-91782915D01*
X133475506Y-91998831D01*
X133669615Y-91482915D01*
X133771425Y-91227761D01*
X133898000Y-90934719D01*
X134042990Y-90616246D01*
X134200047Y-90284800D01*
X134362819Y-89952839D01*
X134524956Y-89632820D01*
X134680109Y-89337201D01*
X134821928Y-89078439D01*
X134944063Y-88868991D01*
X135040163Y-88721316D01*
X135103878Y-88647870D01*
X135117721Y-88642000D01*
X135151317Y-88683802D01*
X135223436Y-88799721D01*
X135325757Y-88975519D01*
X135449963Y-89196962D01*
X135563321Y-89404500D01*
X135746360Y-89742132D01*
X135942634Y-90101871D01*
X136146166Y-90472972D01*
X136350977Y-90844691D01*
X136551092Y-91206281D01*
X136740532Y-91546999D01*
X136913319Y-91856100D01*
X137063476Y-92122838D01*
X137185026Y-92336469D01*
X137271991Y-92486248D01*
X137318393Y-92561430D01*
X137322662Y-92567000D01*
X137326130Y-92545051D01*
X137299552Y-92446472D01*
X137247982Y-92288269D01*
X137196405Y-92142000D01*
X137071146Y-91797830D01*
X136931911Y-91418161D01*
X136782678Y-91013593D01*
X136627428Y-90594725D01*
X136470139Y-90172159D01*
X136314793Y-89756493D01*
X136165368Y-89358328D01*
X136025844Y-88988264D01*
X135900201Y-88656900D01*
X135792419Y-88374838D01*
X135706478Y-88152676D01*
X135646357Y-88001015D01*
X135616037Y-87930455D01*
X135613892Y-87927001D01*
X135571719Y-87946553D01*
X135492619Y-88034078D01*
X135391739Y-88172178D01*
X135363629Y-88214501D01*
X135259337Y-88368641D01*
X135174333Y-88483378D01*
X135123828Y-88538467D01*
X135118628Y-88540570D01*
X135086970Y-88498005D01*
X135015801Y-88379563D01*
X134912235Y-88197830D01*
X134783389Y-87965390D01*
X134636381Y-87694831D01*
X134562000Y-87556141D01*
X134386837Y-87230004D01*
X134177120Y-86842487D01*
X133946997Y-86419550D01*
X133710614Y-85987153D01*
X133482119Y-85571255D01*
X133343424Y-85320070D01*
X133142094Y-84955713D01*
X132905596Y-84526687D01*
X132646643Y-84056115D01*
X132377945Y-83567120D01*
X132112215Y-83082827D01*
X131862165Y-82626359D01*
X131774991Y-82467000D01*
X131369842Y-81731919D01*
X130971891Y-81021339D01*
X130585449Y-80342491D01*
X130214826Y-79702607D01*
X129864333Y-79108919D01*
X129538282Y-78568660D01*
X129240982Y-78089060D01*
X128976745Y-77677351D01*
X128749882Y-77340767D01*
X128578526Y-77104517D01*
X128338500Y-76815096D01*
X128124429Y-76607006D01*
X127939862Y-76482227D01*
X127788345Y-76442742D01*
X127673427Y-76490530D01*
X127620026Y-76569352D01*
X127570527Y-76702914D01*
X127562009Y-76781437D01*
X127590179Y-76791923D01*
X127650745Y-76721373D01*
X127663525Y-76701091D01*
X127760009Y-76583900D01*
X127849651Y-76551147D01*
X127850838Y-76551359D01*
X127944805Y-76611337D01*
X128074946Y-76761108D01*
X128239681Y-76997866D01*
X128437428Y-77318804D01*
X128666606Y-77721118D01*
X128925633Y-78202000D01*
X129212929Y-78758645D01*
X129526912Y-79388248D01*
X129866001Y-80088001D01*
X129987015Y-80342000D01*
X130106192Y-80595949D01*
X130251655Y-80910511D01*
X130419741Y-81277457D01*
X130606792Y-81688559D01*
X130809148Y-82135587D01*
X131023147Y-82610313D01*
X131245131Y-83104507D01*
X131471439Y-83609941D01*
X131698411Y-84118386D01*
X131922387Y-84621613D01*
X132139707Y-85111394D01*
X132346711Y-85579499D01*
X132539738Y-86017700D01*
X132715130Y-86417767D01*
X132869224Y-86771473D01*
X132998363Y-87070587D01*
X133098885Y-87306881D01*
X133167130Y-87472127D01*
X133199439Y-87558096D01*
X133201332Y-87568681D01*
X133170721Y-87532903D01*
X133092333Y-87425091D01*
X132973921Y-87256374D01*
X132823240Y-87037881D01*
X132648045Y-86780743D01*
X132512000Y-86579293D01*
X132285213Y-86244369D01*
X132016718Y-85851376D01*
X131713369Y-85410108D01*
X131382018Y-84930355D01*
X131029519Y-84421909D01*
X130662725Y-83894560D01*
X130288490Y-83358101D01*
X129913666Y-82822323D01*
X129545108Y-82297017D01*
X129189669Y-81791975D01*
X128854202Y-81316988D01*
X128545559Y-80881847D01*
X128270595Y-80496344D01*
X128036164Y-80170270D01*
X127849117Y-79913417D01*
X127796348Y-79842000D01*
X126883622Y-78628337D01*
X126013195Y-77502415D01*
X125183180Y-76462266D01*
X124391689Y-75505921D01*
X123636836Y-74631412D01*
X122916733Y-73836773D01*
X122229493Y-73120034D01*
X121573229Y-72479229D01*
X120946053Y-71912389D01*
X120346078Y-71417546D01*
X119771417Y-70992733D01*
X119220182Y-70635982D01*
X118690487Y-70345324D01*
X118687000Y-70343592D01*
X118292157Y-70155152D01*
X117956102Y-70013691D01*
X117654219Y-69911020D01*
X117361893Y-69838946D01*
X117054508Y-69789278D01*
X117001698Y-69782794D01*
X116642649Y-69760559D01*
X116284510Y-69774527D01*
X116284510Y-69774527D01*
G37*
X116284510Y-69774527D02*
X115957232Y-69821730D01*
X115690764Y-69899198D01*
X115650119Y-69916798D01*
X115487000Y-69992387D01*
X115637000Y-69967014D01*
X116159057Y-69908464D01*
X116648045Y-69912363D01*
X117081752Y-69978467D01*
X117099660Y-69982913D01*
X117605063Y-70149118D01*
X118131727Y-70398170D01*
X118681448Y-70731532D01*
X119256023Y-71150665D01*
X119857249Y-71657032D01*
X120486921Y-72252095D01*
X121146837Y-72937317D01*
X121838793Y-73714160D01*
X122183596Y-74120923D01*
X122503038Y-74506726D01*
X122808218Y-74882942D01*
X123103918Y-75256484D01*
X123394921Y-75634265D01*
X123686009Y-76023199D01*
X123981965Y-76430197D01*
X124287570Y-76862175D01*
X124607608Y-77326044D01*
X124946861Y-77828718D01*
X125310111Y-78377111D01*
X125702141Y-78978135D01*
X126127732Y-79638703D01*
X126591668Y-80365729D01*
X127098730Y-81166127D01*
X127524850Y-81842000D01*
X128496573Y-83408974D01*
X129431194Y-84962400D01*
X130313689Y-86477203D01*
X130535789Y-86867000D01*
X130736508Y-87219175D01*
X130969048Y-87624226D01*
X131214265Y-88048990D01*
X131453015Y-88460304D01*
X131662500Y-88818781D01*
X131871150Y-89176452D01*
X132100027Y-89572551D01*
X132331468Y-89976262D01*
X132547808Y-90356766D01*
X132731381Y-90683246D01*
X132737254Y-90693781D01*
X132895573Y-90977341D01*
X133045765Y-91245448D01*
X133177838Y-91480331D01*
X133281799Y-91664222D01*
X133347656Y-91779351D01*
X133349729Y-91782915D01*
X133475506Y-91998831D01*
X133669615Y-91482915D01*
X133771425Y-91227761D01*
X133898000Y-90934719D01*
X134042990Y-90616246D01*
X134200047Y-90284800D01*
X134362819Y-89952839D01*
X134524956Y-89632820D01*
X134680109Y-89337201D01*
X134821928Y-89078439D01*
X134944063Y-88868991D01*
X135040163Y-88721316D01*
X135103878Y-88647870D01*
X135117721Y-88642000D01*
X135151317Y-88683802D01*
X135223436Y-88799721D01*
X135325757Y-88975519D01*
X135449963Y-89196962D01*
X135563321Y-89404500D01*
X135746360Y-89742132D01*
X135942634Y-90101871D01*
X136146166Y-90472972D01*
X136350977Y-90844691D01*
X136551092Y-91206281D01*
X136740532Y-91546999D01*
X136913319Y-91856100D01*
X137063476Y-92122838D01*
X137185026Y-92336469D01*
X137271991Y-92486248D01*
X137318393Y-92561430D01*
X137322662Y-92567000D01*
X137326130Y-92545051D01*
X137299552Y-92446472D01*
X137247982Y-92288269D01*
X137196405Y-92142000D01*
X137071146Y-91797830D01*
X136931911Y-91418161D01*
X136782678Y-91013593D01*
X136627428Y-90594725D01*
X136470139Y-90172159D01*
X136314793Y-89756493D01*
X136165368Y-89358328D01*
X136025844Y-88988264D01*
X135900201Y-88656900D01*
X135792419Y-88374838D01*
X135706478Y-88152676D01*
X135646357Y-88001015D01*
X135616037Y-87930455D01*
X135613892Y-87927001D01*
X135571719Y-87946553D01*
X135492619Y-88034078D01*
X135391739Y-88172178D01*
X135363629Y-88214501D01*
X135259337Y-88368641D01*
X135174333Y-88483378D01*
X135123828Y-88538467D01*
X135118628Y-88540570D01*
X135086970Y-88498005D01*
X135015801Y-88379563D01*
X134912235Y-88197830D01*
X134783389Y-87965390D01*
X134636381Y-87694831D01*
X134562000Y-87556141D01*
X134386837Y-87230004D01*
X134177120Y-86842487D01*
X133946997Y-86419550D01*
X133710614Y-85987153D01*
X133482119Y-85571255D01*
X133343424Y-85320070D01*
X133142094Y-84955713D01*
X132905596Y-84526687D01*
X132646643Y-84056115D01*
X132377945Y-83567120D01*
X132112215Y-83082827D01*
X131862165Y-82626359D01*
X131774991Y-82467000D01*
X131369842Y-81731919D01*
X130971891Y-81021339D01*
X130585449Y-80342491D01*
X130214826Y-79702607D01*
X129864333Y-79108919D01*
X129538282Y-78568660D01*
X129240982Y-78089060D01*
X128976745Y-77677351D01*
X128749882Y-77340767D01*
X128578526Y-77104517D01*
X128338500Y-76815096D01*
X128124429Y-76607006D01*
X127939862Y-76482227D01*
X127788345Y-76442742D01*
X127673427Y-76490530D01*
X127620026Y-76569352D01*
X127570527Y-76702914D01*
X127562009Y-76781437D01*
X127590179Y-76791923D01*
X127650745Y-76721373D01*
X127663525Y-76701091D01*
X127760009Y-76583900D01*
X127849651Y-76551147D01*
X127850838Y-76551359D01*
X127944805Y-76611337D01*
X128074946Y-76761108D01*
X128239681Y-76997866D01*
X128437428Y-77318804D01*
X128666606Y-77721118D01*
X128925633Y-78202000D01*
X129212929Y-78758645D01*
X129526912Y-79388248D01*
X129866001Y-80088001D01*
X129987015Y-80342000D01*
X130106192Y-80595949D01*
X130251655Y-80910511D01*
X130419741Y-81277457D01*
X130606792Y-81688559D01*
X130809148Y-82135587D01*
X131023147Y-82610313D01*
X131245131Y-83104507D01*
X131471439Y-83609941D01*
X131698411Y-84118386D01*
X131922387Y-84621613D01*
X132139707Y-85111394D01*
X132346711Y-85579499D01*
X132539738Y-86017700D01*
X132715130Y-86417767D01*
X132869224Y-86771473D01*
X132998363Y-87070587D01*
X133098885Y-87306881D01*
X133167130Y-87472127D01*
X133199439Y-87558096D01*
X133201332Y-87568681D01*
X133170721Y-87532903D01*
X133092333Y-87425091D01*
X132973921Y-87256374D01*
X132823240Y-87037881D01*
X132648045Y-86780743D01*
X132512000Y-86579293D01*
X132285213Y-86244369D01*
X132016718Y-85851376D01*
X131713369Y-85410108D01*
X131382018Y-84930355D01*
X131029519Y-84421909D01*
X130662725Y-83894560D01*
X130288490Y-83358101D01*
X129913666Y-82822323D01*
X129545108Y-82297017D01*
X129189669Y-81791975D01*
X128854202Y-81316988D01*
X128545559Y-80881847D01*
X128270595Y-80496344D01*
X128036164Y-80170270D01*
X127849117Y-79913417D01*
X127796348Y-79842000D01*
X126883622Y-78628337D01*
X126013195Y-77502415D01*
X125183180Y-76462266D01*
X124391689Y-75505921D01*
X123636836Y-74631412D01*
X122916733Y-73836773D01*
X122229493Y-73120034D01*
X121573229Y-72479229D01*
X120946053Y-71912389D01*
X120346078Y-71417546D01*
X119771417Y-70992733D01*
X119220182Y-70635982D01*
X118690487Y-70345324D01*
X118687000Y-70343592D01*
X118292157Y-70155152D01*
X117956102Y-70013691D01*
X117654219Y-69911020D01*
X117361893Y-69838946D01*
X117054508Y-69789278D01*
X117001698Y-69782794D01*
X116642649Y-69760559D01*
X116284510Y-69774527D01*
G36*
X137362000Y-92667000D02*
G01*
X137387000Y-92692000D01*
X137412000Y-92667000D01*
X137387000Y-92642000D01*
X137362000Y-92667000D01*
X137362000Y-92667000D01*
G37*
X137362000Y-92667000D02*
X137387000Y-92692000D01*
X137412000Y-92667000D01*
X137387000Y-92642000D01*
X137362000Y-92667000D01*
G36*
X132671024Y-80921749D02*
G01*
X132697208Y-80982014D01*
X132782359Y-81110213D01*
X132831211Y-81179384D01*
X132922600Y-81314282D01*
X133012141Y-81462350D01*
X133105454Y-81635429D01*
X133208157Y-81845359D01*
X133325868Y-82103981D01*
X133464208Y-82423136D01*
X133628794Y-82814665D01*
X133775321Y-83168962D01*
X133899938Y-83474884D01*
X134053633Y-83857242D01*
X134229743Y-84299078D01*
X134421604Y-84783433D01*
X134622553Y-85293351D01*
X134825927Y-85811872D01*
X135025061Y-86322037D01*
X135213293Y-86806890D01*
X135383959Y-87249471D01*
X135530396Y-87632822D01*
X135559533Y-87709734D01*
X135613506Y-87852469D01*
X135893959Y-87468440D01*
X136017958Y-87307885D01*
X136122663Y-87189351D01*
X136193588Y-87128364D01*
X136213764Y-87125705D01*
X136241744Y-87176752D01*
X136309374Y-87310313D01*
X136412940Y-87518793D01*
X136548724Y-87794600D01*
X136713014Y-88130138D01*
X136902092Y-88517814D01*
X137112245Y-88950034D01*
X137339758Y-89419203D01*
X137580914Y-89917728D01*
X137677151Y-90117000D01*
X138231214Y-91264117D01*
X138745351Y-92327140D01*
X139222599Y-93312274D01*
X139665993Y-94225725D01*
X140078568Y-95073701D01*
X140463360Y-95862408D01*
X140823405Y-96598052D01*
X141161737Y-97286840D01*
X141481392Y-97934978D01*
X141785407Y-98548673D01*
X142076815Y-99134131D01*
X142358654Y-99697558D01*
X142519083Y-100017000D01*
X142736517Y-100451890D01*
X142922186Y-100825745D01*
X143082695Y-101147148D01*
X143224645Y-101424684D01*
X143354642Y-101666938D01*
X143479287Y-101882492D01*
X143605185Y-102079932D01*
X143738939Y-102267843D01*
X143887151Y-102454807D01*
X144056426Y-102649410D01*
X144253367Y-102860236D01*
X144484576Y-103095870D01*
X144756658Y-103364894D01*
X145076216Y-103675895D01*
X145449853Y-104037455D01*
X145884172Y-104458160D01*
X146087000Y-104655269D01*
X146452847Y-105013245D01*
X146810771Y-105367215D01*
X147151431Y-105707687D01*
X147465490Y-106025166D01*
X147743608Y-106310158D01*
X147976446Y-106553171D01*
X148154664Y-106744711D01*
X148258404Y-106862556D01*
X148540539Y-107194288D01*
X148882660Y-107586544D01*
X149274761Y-108028428D01*
X149706834Y-108509041D01*
X150168875Y-109017486D01*
X150650878Y-109542864D01*
X151142835Y-110074277D01*
X151634742Y-110600829D01*
X152116593Y-111111620D01*
X152578380Y-111595753D01*
X153010100Y-112042331D01*
X153080742Y-112114713D01*
X153319666Y-112359835D01*
X153532996Y-112580033D01*
X153711513Y-112765679D01*
X153845996Y-112907148D01*
X153927226Y-112994813D01*
X153947620Y-113019803D01*
X153886164Y-113041699D01*
X153746921Y-113081759D01*
X153549389Y-113135013D01*
X153313070Y-113196491D01*
X153057462Y-113261221D01*
X152802065Y-113324234D01*
X152566379Y-113380559D01*
X152369903Y-113425224D01*
X152293997Y-113441319D01*
X151972879Y-113501869D01*
X151739509Y-113533758D01*
X151586006Y-113537572D01*
X151504490Y-113513895D01*
X151492419Y-113500767D01*
X151444649Y-113453636D01*
X151336559Y-113359968D01*
X151186290Y-113235222D01*
X151076968Y-113146704D01*
X150687000Y-112833874D01*
X151081592Y-113206042D01*
X151476183Y-113578210D01*
X151306592Y-113608561D01*
X151005996Y-113652039D01*
X150645711Y-113687258D01*
X150239388Y-113714318D01*
X149800679Y-113733319D01*
X149343234Y-113744360D01*
X148880704Y-113747543D01*
X148426742Y-113742965D01*
X147994998Y-113730729D01*
X147599123Y-113710933D01*
X147252769Y-113683677D01*
X146969586Y-113649062D01*
X146763227Y-113607186D01*
X146673813Y-113574648D01*
X146616640Y-113515656D01*
X146515448Y-113378558D01*
X146375629Y-113172186D01*
X146202576Y-112905374D01*
X146001679Y-112586957D01*
X145778332Y-112225766D01*
X145537927Y-111830635D01*
X145285855Y-111410399D01*
X145027508Y-110973889D01*
X144768279Y-110529941D01*
X144513560Y-110087386D01*
X144268742Y-109655059D01*
X144135917Y-109417000D01*
X143925146Y-109043407D01*
X143698778Y-108653364D01*
X143470007Y-108268842D01*
X143252032Y-107911813D01*
X143058049Y-107604249D01*
X142934717Y-107417000D01*
X142750191Y-107135244D01*
X142535894Y-106792924D01*
X142308694Y-106417931D01*
X142085462Y-106038156D01*
X141883070Y-105681491D01*
X141862821Y-105644896D01*
X141614336Y-105205901D01*
X141369986Y-104800165D01*
X141112194Y-104400415D01*
X140823384Y-103979376D01*
X140493374Y-103519896D01*
X139786684Y-102532520D01*
X139118884Y-101556997D01*
X138474449Y-100569268D01*
X137837855Y-99545274D01*
X137193576Y-98460956D01*
X136894191Y-97942000D01*
X136714544Y-97633298D01*
X136551067Y-97366833D01*
X136389027Y-97121723D01*
X136213688Y-96877088D01*
X136010314Y-96612048D01*
X135764172Y-96305725D01*
X135588648Y-96092000D01*
X135346402Y-95798153D01*
X135105442Y-95505051D01*
X134879433Y-95229373D01*
X134682037Y-94987800D01*
X134526917Y-94797011D01*
X134462348Y-94717000D01*
X134306952Y-94525571D01*
X134110204Y-94286204D01*
X133895477Y-94027190D01*
X133686146Y-93776816D01*
X133651536Y-93735674D01*
X133481097Y-93529296D01*
X133336473Y-93346591D01*
X133228964Y-93202433D01*
X133169865Y-93111699D01*
X133162000Y-93091064D01*
X133175340Y-93015980D01*
X133209664Y-92879525D01*
X133256432Y-92711088D01*
X133307105Y-92540058D01*
X133353141Y-92395824D01*
X133386001Y-92307776D01*
X133393299Y-92295118D01*
X133436956Y-92315364D01*
X133530772Y-92389666D01*
X133647121Y-92495118D01*
X133762510Y-92599100D01*
X133816527Y-92633554D01*
X133806054Y-92596547D01*
X133803299Y-92592000D01*
X133733394Y-92470450D01*
X133647395Y-92310809D01*
X133613465Y-92245197D01*
X133545233Y-92116942D01*
X133503385Y-92067140D01*
X133470436Y-92084382D01*
X133441731Y-92133160D01*
X133414821Y-92174070D01*
X133380835Y-92188089D01*
X133326920Y-92167181D01*
X133240224Y-92103310D01*
X133107893Y-91988438D01*
X132917075Y-91814529D01*
X132884994Y-91785043D01*
X132319077Y-91269091D01*
X131814917Y-90819113D01*
X131365064Y-90428895D01*
X130962070Y-90092226D01*
X130598487Y-89802894D01*
X130266866Y-89554685D01*
X129959759Y-89341388D01*
X129937000Y-89326291D01*
X129529954Y-89074249D01*
X129181645Y-88894834D01*
X128893806Y-88788660D01*
X128668168Y-88756343D01*
X128506464Y-88798496D01*
X128487000Y-88811915D01*
X128433624Y-88858667D01*
X128443561Y-88881499D01*
X128531293Y-88889311D01*
X128614711Y-88890409D01*
X128837622Y-88923470D01*
X129058791Y-89029267D01*
X129068640Y-89035462D01*
X129243767Y-89159200D01*
X129470587Y-89338122D01*
X129730672Y-89556117D01*
X130005594Y-89797076D01*
X130276922Y-90044888D01*
X130526230Y-90283442D01*
X130712000Y-90472105D01*
X130866284Y-90636564D01*
X131061730Y-90847411D01*
X131288077Y-91093343D01*
X131535068Y-91363058D01*
X131792442Y-91645252D01*
X132049941Y-91928623D01*
X132297304Y-92201868D01*
X132524272Y-92453683D01*
X132720586Y-92672766D01*
X132875987Y-92847814D01*
X132980215Y-92967524D01*
X133014405Y-93008700D01*
X133124608Y-93148801D01*
X132989374Y-93757900D01*
X132878285Y-94286951D01*
X132791906Y-94771131D01*
X132726970Y-95238709D01*
X132680208Y-95717950D01*
X132648352Y-96237123D01*
X132628133Y-96824495D01*
X132626426Y-96896857D01*
X132620159Y-97709710D01*
X132641948Y-98451716D01*
X132694384Y-99148731D01*
X132780059Y-99826612D01*
X132901564Y-100511214D01*
X133059841Y-101221591D01*
X133405949Y-102440381D01*
X133843498Y-103623028D01*
X134368968Y-104764730D01*
X134978836Y-105860683D01*
X135669582Y-106906082D01*
X136437684Y-107896123D01*
X137279620Y-108826003D01*
X138191869Y-109690917D01*
X139170911Y-110486062D01*
X140213223Y-111206634D01*
X140517259Y-111395181D01*
X141554902Y-111971216D01*
X142640347Y-112475108D01*
X143756960Y-112900592D01*
X144888112Y-113241401D01*
X146017168Y-113491271D01*
X146137000Y-113512333D01*
X146399838Y-113565833D01*
X146569429Y-113621012D01*
X146651229Y-113678202D01*
X146696586Y-113742881D01*
X146790026Y-113877604D01*
X146923000Y-114069992D01*
X147086960Y-114307671D01*
X147273360Y-114578263D01*
X147420432Y-114792000D01*
X147969141Y-115571000D01*
X148485321Y-116263827D01*
X148974601Y-116876743D01*
X149442612Y-117416008D01*
X149894983Y-117887882D01*
X150337345Y-118298626D01*
X150775327Y-118654500D01*
X151105870Y-118890201D01*
X151397193Y-119068074D01*
X151732565Y-119244363D01*
X152080175Y-119404343D01*
X152408210Y-119533288D01*
X152664554Y-119611653D01*
X153074591Y-119684453D01*
X153518290Y-119716827D01*
X153952066Y-119707279D01*
X154271660Y-119666766D01*
X154864181Y-119503674D01*
X155432055Y-119243851D01*
X155974520Y-118887674D01*
X156162297Y-118736899D01*
X156307236Y-118624030D01*
X156425217Y-118565443D01*
X156559353Y-118544073D01*
X156654689Y-118542000D01*
X157324748Y-118502729D01*
X158004645Y-118389318D01*
X158166336Y-118345434D01*
X154471211Y-118345434D01*
X154401990Y-118388850D01*
X154337000Y-118409146D01*
X154242166Y-118420057D01*
X154078136Y-118425404D01*
X153875598Y-118424393D01*
X153812000Y-118422734D01*
X153520335Y-118401675D01*
X153279667Y-118353228D01*
X153073061Y-118280965D01*
X152735082Y-118126647D01*
X152432615Y-117949928D01*
X152138694Y-117732283D01*
X151826353Y-117455189D01*
X151715622Y-117348504D01*
X151552213Y-117185717D01*
X151430756Y-117059044D01*
X151360248Y-116978368D01*
X151349687Y-116953574D01*
X151362000Y-116960044D01*
X151878796Y-117281015D01*
X152325335Y-117536974D01*
X152705425Y-117730100D01*
X152723616Y-117738545D01*
X152991941Y-117853553D01*
X153299251Y-117971084D01*
X153617748Y-118081788D01*
X153919634Y-118176318D01*
X154177111Y-118245325D01*
X154312623Y-118272899D01*
X154441239Y-118305757D01*
X154471211Y-118345434D01*
X158166336Y-118345434D01*
X158671346Y-118208372D01*
X159301814Y-117966493D01*
X159873016Y-117670284D01*
X160021877Y-117576749D01*
X160194053Y-117476569D01*
X160363292Y-117398705D01*
X160462000Y-117367546D01*
X160592191Y-117328868D01*
X160775172Y-117259003D01*
X160974554Y-117172005D01*
X161003635Y-117158343D01*
X161403614Y-116913932D01*
X161404261Y-116913324D01*
X156535126Y-116913324D01*
X156518541Y-116952964D01*
X156471804Y-117006562D01*
X156460775Y-117018304D01*
X156398222Y-117079987D01*
X156336057Y-117118123D01*
X156254945Y-117133294D01*
X156135550Y-117126084D01*
X155958535Y-117097077D01*
X155704566Y-117046856D01*
X155680004Y-117041871D01*
X155475679Y-116996311D01*
X155241595Y-116937703D01*
X154995849Y-116871399D01*
X154756538Y-116802751D01*
X154541758Y-116737112D01*
X154369606Y-116679832D01*
X154258178Y-116636265D01*
X154225571Y-116611763D01*
X154225609Y-116611725D01*
X154279689Y-116611518D01*
X154408226Y-116626696D01*
X154587387Y-116654236D01*
X154663696Y-116667298D01*
X154881827Y-116700485D01*
X155163032Y-116735875D01*
X155470594Y-116769176D01*
X155760271Y-116795493D01*
X156068232Y-116820627D01*
X156288113Y-116841291D01*
X156431498Y-116861172D01*
X156509974Y-116883955D01*
X156535126Y-116913324D01*
X161404261Y-116913324D01*
X161750426Y-116588485D01*
X162040724Y-116187672D01*
X162271162Y-115717162D01*
X162438393Y-115182625D01*
X162539070Y-114589730D01*
X162543138Y-114550239D01*
X162578319Y-114335234D01*
X162640107Y-114080285D01*
X162715743Y-113837374D01*
X162723117Y-113817000D01*
X162918828Y-113214625D01*
X162944009Y-113117000D01*
X161969671Y-113117000D01*
X161947860Y-113474634D01*
X161925761Y-113692420D01*
X161880757Y-113870975D01*
X161798461Y-114057795D01*
X161735785Y-114174634D01*
X161310322Y-114862818D01*
X160848380Y-115460636D01*
X160346783Y-115972017D01*
X160137000Y-116151083D01*
X159837000Y-116394118D01*
X159512000Y-116363127D01*
X159342708Y-116344419D01*
X159217802Y-116325804D01*
X159166167Y-116312068D01*
X159155455Y-116298606D01*
X159164998Y-116280854D01*
X159210516Y-116247682D01*
X159307726Y-116187959D01*
X159472347Y-116090557D01*
X159512000Y-116067192D01*
X160058467Y-115698975D01*
X160549152Y-115268407D01*
X160992041Y-114766579D01*
X161395124Y-114184582D01*
X161721144Y-113603158D01*
X161969671Y-113117000D01*
X162944009Y-113117000D01*
X163096697Y-112525062D01*
X163254319Y-111759924D01*
X163389289Y-110930822D01*
X163494611Y-110092000D01*
X163517583Y-109830205D01*
X163536858Y-109511679D01*
X163552329Y-109151590D01*
X163563890Y-108765108D01*
X163571435Y-108367401D01*
X163574857Y-107973638D01*
X163574051Y-107598988D01*
X163568910Y-107258620D01*
X163559328Y-106967703D01*
X163545198Y-106741405D01*
X163526415Y-106594895D01*
X163519294Y-106567000D01*
X163491735Y-106491362D01*
X163476423Y-106487530D01*
X163469054Y-106565607D01*
X163466014Y-106692000D01*
X163449781Y-107089249D01*
X163414794Y-107560990D01*
X163364009Y-108084101D01*
X163300383Y-108635458D01*
X163226874Y-109191940D01*
X163146437Y-109730423D01*
X163062029Y-110227784D01*
X162976607Y-110660902D01*
X162935249Y-110842786D01*
X162858854Y-111147302D01*
X162777883Y-111447634D01*
X162696960Y-111728919D01*
X162620711Y-111976292D01*
X162553759Y-112174892D01*
X162500730Y-112309853D01*
X162466247Y-112366313D01*
X162461161Y-112366481D01*
X162415233Y-112285541D01*
X162392276Y-112126543D01*
X162392253Y-111908747D01*
X162415127Y-111651410D01*
X162460861Y-111373794D01*
X162463083Y-111362935D01*
X162535510Y-110990273D01*
X162594363Y-110633583D01*
X162641036Y-110275890D01*
X162676919Y-109900219D01*
X162703406Y-109489593D01*
X162721889Y-109027038D01*
X162733761Y-108495578D01*
X162739574Y-107992000D01*
X162747368Y-107018257D01*
X162459554Y-107018257D01*
X162454752Y-107212542D01*
X162444833Y-107454453D01*
X162430668Y-107726632D01*
X162413126Y-108011720D01*
X162393078Y-108292360D01*
X162371392Y-108551193D01*
X162357623Y-108692000D01*
X162329847Y-108926690D01*
X162292942Y-109195805D01*
X162250192Y-109479713D01*
X162204878Y-109758783D01*
X162160284Y-110013384D01*
X162119693Y-110223884D01*
X162086387Y-110370653D01*
X162067138Y-110429092D01*
X162040141Y-110408785D01*
X161990621Y-110308636D01*
X161925347Y-110144420D01*
X161851082Y-109931909D01*
X161841946Y-109904092D01*
X161729459Y-109568643D01*
X161628865Y-109286952D01*
X161543971Y-109068599D01*
X161478581Y-108923163D01*
X161436502Y-108860221D01*
X161427208Y-108860125D01*
X161428888Y-108914263D01*
X161448805Y-109046695D01*
X161483657Y-109238059D01*
X161530142Y-109468996D01*
X161534828Y-109491269D01*
X161598668Y-109806506D01*
X161666664Y-110163210D01*
X161728925Y-110508606D01*
X161760956Y-110697887D01*
X161858295Y-111294530D01*
X161706358Y-111730765D01*
X161579221Y-112065284D01*
X161422009Y-112432109D01*
X161247962Y-112803688D01*
X161070320Y-113152472D01*
X160902325Y-113450908D01*
X160808539Y-113598985D01*
X160570107Y-113914765D01*
X160280764Y-114240068D01*
X159970826Y-114543415D01*
X159670609Y-114793329D01*
X159629014Y-114823742D01*
X159477685Y-114923250D01*
X159291332Y-115032885D01*
X159089924Y-115142549D01*
X158893430Y-115242143D01*
X158721816Y-115321571D01*
X158595053Y-115370732D01*
X158533108Y-115379531D01*
X158531894Y-115378560D01*
X158541098Y-115326578D01*
X158584334Y-115207900D01*
X158652804Y-115046193D01*
X158668015Y-115012391D01*
X158815634Y-114672679D01*
X158981693Y-114266043D01*
X159155320Y-113821169D01*
X159325645Y-113366741D01*
X159481797Y-112931442D01*
X159612905Y-112543959D01*
X159661094Y-112392000D01*
X159744419Y-112113478D01*
X159834322Y-111798690D01*
X159926756Y-111463351D01*
X160017677Y-111123175D01*
X160103038Y-110793879D01*
X160178794Y-110491179D01*
X160240898Y-110230789D01*
X160285305Y-110028426D01*
X160307969Y-109899806D01*
X160310026Y-109871304D01*
X160291796Y-109890461D01*
X160240944Y-109992663D01*
X160161768Y-110168019D01*
X160058566Y-110406638D01*
X159935638Y-110698631D01*
X159797282Y-111034107D01*
X159692552Y-111292000D01*
X159472978Y-111831631D01*
X159279923Y-112294934D01*
X159105232Y-112699375D01*
X158940750Y-113062422D01*
X158778322Y-113401541D01*
X158609793Y-113734199D01*
X158427008Y-114077865D01*
X158221811Y-114450004D01*
X158199641Y-114489642D01*
X158000214Y-114843221D01*
X157841145Y-115117964D01*
X157715821Y-115323317D01*
X157617630Y-115468727D01*
X157539961Y-115563640D01*
X157476201Y-115617504D01*
X157419739Y-115639766D01*
X157393094Y-115642000D01*
X157302474Y-115615366D01*
X157153157Y-115543482D01*
X156968416Y-115438372D01*
X156829555Y-115350855D01*
X156625743Y-115210623D01*
X156373331Y-115027319D01*
X156100517Y-114821922D01*
X155835497Y-114615411D01*
X155761583Y-114556262D01*
X155713653Y-114517000D01*
X152812000Y-114517000D01*
X152787000Y-114542000D01*
X152762000Y-114517000D01*
X152787000Y-114492000D01*
X152812000Y-114517000D01*
X155713653Y-114517000D01*
X155662049Y-114474728D01*
X152712000Y-114474728D01*
X152673779Y-114465257D01*
X152559531Y-114392000D01*
X152369879Y-114255398D01*
X152105447Y-114055888D01*
X151971345Y-113952753D01*
X151802960Y-113818999D01*
X151671957Y-113707867D01*
X151593714Y-113632865D01*
X151579093Y-113608240D01*
X151623133Y-113629426D01*
X151727852Y-113700093D01*
X151876004Y-113807051D01*
X152050344Y-113937109D01*
X152233625Y-114077077D01*
X152408602Y-114213765D01*
X152558030Y-114333984D01*
X152664661Y-114424542D01*
X152711251Y-114472249D01*
X152712000Y-114474728D01*
X155662049Y-114474728D01*
X155546375Y-114379974D01*
X155310090Y-114181670D01*
X155064178Y-113971487D01*
X154820087Y-113759563D01*
X154589266Y-113556038D01*
X154383164Y-113371050D01*
X154213230Y-113214737D01*
X154090912Y-113097237D01*
X154027659Y-113028689D01*
X154021939Y-113015727D01*
X154071955Y-112993809D01*
X154197301Y-112944825D01*
X154379341Y-112875916D01*
X154599438Y-112794225D01*
X154610685Y-112790088D01*
X155775243Y-112310850D01*
X156899420Y-111745931D01*
X157976463Y-111100322D01*
X158999620Y-110379013D01*
X159962138Y-109586995D01*
X160857266Y-108729258D01*
X161678249Y-107810792D01*
X162134787Y-107229500D01*
X162261046Y-107063794D01*
X162365176Y-106933457D01*
X162432983Y-106855922D01*
X162450331Y-106842000D01*
X162458370Y-106888957D01*
X162459554Y-107018257D01*
X162747368Y-107018257D01*
X162752582Y-106367000D01*
X163086889Y-105817000D01*
X163697093Y-104717666D01*
X164218076Y-103574089D01*
X164650025Y-102385713D01*
X164993125Y-101151982D01*
X165247562Y-99872342D01*
X165368188Y-98992000D01*
X165391499Y-98713548D01*
X165408784Y-98358128D01*
X165420043Y-97948589D01*
X165425277Y-97507780D01*
X165424485Y-97058551D01*
X165417666Y-96623750D01*
X165404823Y-96226229D01*
X165385953Y-95888835D01*
X165368188Y-95692000D01*
X165171988Y-94378906D01*
X164885813Y-93109418D01*
X164509570Y-91883309D01*
X164043167Y-90700353D01*
X163486509Y-89560321D01*
X162839504Y-88462986D01*
X162102058Y-87408122D01*
X161817041Y-87042000D01*
X161562494Y-86738748D01*
X161252431Y-86392862D01*
X160907879Y-86026059D01*
X160549865Y-85660055D01*
X160199416Y-85316568D01*
X159877559Y-85017315D01*
X159737000Y-84893704D01*
X158731398Y-84095466D01*
X157674075Y-83382057D01*
X156568823Y-82755130D01*
X155419436Y-82216336D01*
X154229708Y-81767329D01*
X153003430Y-81409762D01*
X151744397Y-81145288D01*
X150837000Y-81015430D01*
X150464903Y-80981761D01*
X150021367Y-80956893D01*
X149532345Y-80941026D01*
X149023792Y-80934361D01*
X148521662Y-80937097D01*
X148051909Y-80949436D01*
X147640488Y-80971578D01*
X147437000Y-80989178D01*
X146142146Y-81170486D01*
X144887542Y-81443215D01*
X143672120Y-81807804D01*
X142494817Y-82264695D01*
X141354566Y-82814326D01*
X140250300Y-83457138D01*
X139180956Y-84193572D01*
X138612000Y-84634893D01*
X138393752Y-84819725D01*
X138133432Y-85053960D01*
X137846214Y-85322631D01*
X137547269Y-85610768D01*
X137251770Y-85903405D01*
X136974890Y-86185573D01*
X136731800Y-86442304D01*
X136537673Y-86658629D01*
X136437000Y-86780622D01*
X136331219Y-86912399D01*
X136249875Y-87005709D01*
X136212000Y-87039439D01*
X136184346Y-86996818D01*
X136117436Y-86875207D01*
X136016723Y-86685065D01*
X135887660Y-86436852D01*
X135735700Y-86141026D01*
X135566297Y-85808047D01*
X135450573Y-85578945D01*
X135091759Y-84873969D01*
X134746679Y-84210417D01*
X134418321Y-83593463D01*
X134109677Y-83028280D01*
X133823734Y-82520045D01*
X133563484Y-82073929D01*
X133331916Y-81695107D01*
X133132019Y-81388754D01*
X132966785Y-81160044D01*
X132839201Y-81014150D01*
X132788989Y-80972900D01*
X132702165Y-80921388D01*
X132671024Y-80921749D01*
X132671024Y-80921749D01*
G37*
X132671024Y-80921749D02*
X132697208Y-80982014D01*
X132782359Y-81110213D01*
X132831211Y-81179384D01*
X132922600Y-81314282D01*
X133012141Y-81462350D01*
X133105454Y-81635429D01*
X133208157Y-81845359D01*
X133325868Y-82103981D01*
X133464208Y-82423136D01*
X133628794Y-82814665D01*
X133775321Y-83168962D01*
X133899938Y-83474884D01*
X134053633Y-83857242D01*
X134229743Y-84299078D01*
X134421604Y-84783433D01*
X134622553Y-85293351D01*
X134825927Y-85811872D01*
X135025061Y-86322037D01*
X135213293Y-86806890D01*
X135383959Y-87249471D01*
X135530396Y-87632822D01*
X135559533Y-87709734D01*
X135613506Y-87852469D01*
X135893959Y-87468440D01*
X136017958Y-87307885D01*
X136122663Y-87189351D01*
X136193588Y-87128364D01*
X136213764Y-87125705D01*
X136241744Y-87176752D01*
X136309374Y-87310313D01*
X136412940Y-87518793D01*
X136548724Y-87794600D01*
X136713014Y-88130138D01*
X136902092Y-88517814D01*
X137112245Y-88950034D01*
X137339758Y-89419203D01*
X137580914Y-89917728D01*
X137677151Y-90117000D01*
X138231214Y-91264117D01*
X138745351Y-92327140D01*
X139222599Y-93312274D01*
X139665993Y-94225725D01*
X140078568Y-95073701D01*
X140463360Y-95862408D01*
X140823405Y-96598052D01*
X141161737Y-97286840D01*
X141481392Y-97934978D01*
X141785407Y-98548673D01*
X142076815Y-99134131D01*
X142358654Y-99697558D01*
X142519083Y-100017000D01*
X142736517Y-100451890D01*
X142922186Y-100825745D01*
X143082695Y-101147148D01*
X143224645Y-101424684D01*
X143354642Y-101666938D01*
X143479287Y-101882492D01*
X143605185Y-102079932D01*
X143738939Y-102267843D01*
X143887151Y-102454807D01*
X144056426Y-102649410D01*
X144253367Y-102860236D01*
X144484576Y-103095870D01*
X144756658Y-103364894D01*
X145076216Y-103675895D01*
X145449853Y-104037455D01*
X145884172Y-104458160D01*
X146087000Y-104655269D01*
X146452847Y-105013245D01*
X146810771Y-105367215D01*
X147151431Y-105707687D01*
X147465490Y-106025166D01*
X147743608Y-106310158D01*
X147976446Y-106553171D01*
X148154664Y-106744711D01*
X148258404Y-106862556D01*
X148540539Y-107194288D01*
X148882660Y-107586544D01*
X149274761Y-108028428D01*
X149706834Y-108509041D01*
X150168875Y-109017486D01*
X150650878Y-109542864D01*
X151142835Y-110074277D01*
X151634742Y-110600829D01*
X152116593Y-111111620D01*
X152578380Y-111595753D01*
X153010100Y-112042331D01*
X153080742Y-112114713D01*
X153319666Y-112359835D01*
X153532996Y-112580033D01*
X153711513Y-112765679D01*
X153845996Y-112907148D01*
X153927226Y-112994813D01*
X153947620Y-113019803D01*
X153886164Y-113041699D01*
X153746921Y-113081759D01*
X153549389Y-113135013D01*
X153313070Y-113196491D01*
X153057462Y-113261221D01*
X152802065Y-113324234D01*
X152566379Y-113380559D01*
X152369903Y-113425224D01*
X152293997Y-113441319D01*
X151972879Y-113501869D01*
X151739509Y-113533758D01*
X151586006Y-113537572D01*
X151504490Y-113513895D01*
X151492419Y-113500767D01*
X151444649Y-113453636D01*
X151336559Y-113359968D01*
X151186290Y-113235222D01*
X151076968Y-113146704D01*
X150687000Y-112833874D01*
X151081592Y-113206042D01*
X151476183Y-113578210D01*
X151306592Y-113608561D01*
X151005996Y-113652039D01*
X150645711Y-113687258D01*
X150239388Y-113714318D01*
X149800679Y-113733319D01*
X149343234Y-113744360D01*
X148880704Y-113747543D01*
X148426742Y-113742965D01*
X147994998Y-113730729D01*
X147599123Y-113710933D01*
X147252769Y-113683677D01*
X146969586Y-113649062D01*
X146763227Y-113607186D01*
X146673813Y-113574648D01*
X146616640Y-113515656D01*
X146515448Y-113378558D01*
X146375629Y-113172186D01*
X146202576Y-112905374D01*
X146001679Y-112586957D01*
X145778332Y-112225766D01*
X145537927Y-111830635D01*
X145285855Y-111410399D01*
X145027508Y-110973889D01*
X144768279Y-110529941D01*
X144513560Y-110087386D01*
X144268742Y-109655059D01*
X144135917Y-109417000D01*
X143925146Y-109043407D01*
X143698778Y-108653364D01*
X143470007Y-108268842D01*
X143252032Y-107911813D01*
X143058049Y-107604249D01*
X142934717Y-107417000D01*
X142750191Y-107135244D01*
X142535894Y-106792924D01*
X142308694Y-106417931D01*
X142085462Y-106038156D01*
X141883070Y-105681491D01*
X141862821Y-105644896D01*
X141614336Y-105205901D01*
X141369986Y-104800165D01*
X141112194Y-104400415D01*
X140823384Y-103979376D01*
X140493374Y-103519896D01*
X139786684Y-102532520D01*
X139118884Y-101556997D01*
X138474449Y-100569268D01*
X137837855Y-99545274D01*
X137193576Y-98460956D01*
X136894191Y-97942000D01*
X136714544Y-97633298D01*
X136551067Y-97366833D01*
X136389027Y-97121723D01*
X136213688Y-96877088D01*
X136010314Y-96612048D01*
X135764172Y-96305725D01*
X135588648Y-96092000D01*
X135346402Y-95798153D01*
X135105442Y-95505051D01*
X134879433Y-95229373D01*
X134682037Y-94987800D01*
X134526917Y-94797011D01*
X134462348Y-94717000D01*
X134306952Y-94525571D01*
X134110204Y-94286204D01*
X133895477Y-94027190D01*
X133686146Y-93776816D01*
X133651536Y-93735674D01*
X133481097Y-93529296D01*
X133336473Y-93346591D01*
X133228964Y-93202433D01*
X133169865Y-93111699D01*
X133162000Y-93091064D01*
X133175340Y-93015980D01*
X133209664Y-92879525D01*
X133256432Y-92711088D01*
X133307105Y-92540058D01*
X133353141Y-92395824D01*
X133386001Y-92307776D01*
X133393299Y-92295118D01*
X133436956Y-92315364D01*
X133530772Y-92389666D01*
X133647121Y-92495118D01*
X133762510Y-92599100D01*
X133816527Y-92633554D01*
X133806054Y-92596547D01*
X133803299Y-92592000D01*
X133733394Y-92470450D01*
X133647395Y-92310809D01*
X133613465Y-92245197D01*
X133545233Y-92116942D01*
X133503385Y-92067140D01*
X133470436Y-92084382D01*
X133441731Y-92133160D01*
X133414821Y-92174070D01*
X133380835Y-92188089D01*
X133326920Y-92167181D01*
X133240224Y-92103310D01*
X133107893Y-91988438D01*
X132917075Y-91814529D01*
X132884994Y-91785043D01*
X132319077Y-91269091D01*
X131814917Y-90819113D01*
X131365064Y-90428895D01*
X130962070Y-90092226D01*
X130598487Y-89802894D01*
X130266866Y-89554685D01*
X129959759Y-89341388D01*
X129937000Y-89326291D01*
X129529954Y-89074249D01*
X129181645Y-88894834D01*
X128893806Y-88788660D01*
X128668168Y-88756343D01*
X128506464Y-88798496D01*
X128487000Y-88811915D01*
X128433624Y-88858667D01*
X128443561Y-88881499D01*
X128531293Y-88889311D01*
X128614711Y-88890409D01*
X128837622Y-88923470D01*
X129058791Y-89029267D01*
X129068640Y-89035462D01*
X129243767Y-89159200D01*
X129470587Y-89338122D01*
X129730672Y-89556117D01*
X130005594Y-89797076D01*
X130276922Y-90044888D01*
X130526230Y-90283442D01*
X130712000Y-90472105D01*
X130866284Y-90636564D01*
X131061730Y-90847411D01*
X131288077Y-91093343D01*
X131535068Y-91363058D01*
X131792442Y-91645252D01*
X132049941Y-91928623D01*
X132297304Y-92201868D01*
X132524272Y-92453683D01*
X132720586Y-92672766D01*
X132875987Y-92847814D01*
X132980215Y-92967524D01*
X133014405Y-93008700D01*
X133124608Y-93148801D01*
X132989374Y-93757900D01*
X132878285Y-94286951D01*
X132791906Y-94771131D01*
X132726970Y-95238709D01*
X132680208Y-95717950D01*
X132648352Y-96237123D01*
X132628133Y-96824495D01*
X132626426Y-96896857D01*
X132620159Y-97709710D01*
X132641948Y-98451716D01*
X132694384Y-99148731D01*
X132780059Y-99826612D01*
X132901564Y-100511214D01*
X133059841Y-101221591D01*
X133405949Y-102440381D01*
X133843498Y-103623028D01*
X134368968Y-104764730D01*
X134978836Y-105860683D01*
X135669582Y-106906082D01*
X136437684Y-107896123D01*
X137279620Y-108826003D01*
X138191869Y-109690917D01*
X139170911Y-110486062D01*
X140213223Y-111206634D01*
X140517259Y-111395181D01*
X141554902Y-111971216D01*
X142640347Y-112475108D01*
X143756960Y-112900592D01*
X144888112Y-113241401D01*
X146017168Y-113491271D01*
X146137000Y-113512333D01*
X146399838Y-113565833D01*
X146569429Y-113621012D01*
X146651229Y-113678202D01*
X146696586Y-113742881D01*
X146790026Y-113877604D01*
X146923000Y-114069992D01*
X147086960Y-114307671D01*
X147273360Y-114578263D01*
X147420432Y-114792000D01*
X147969141Y-115571000D01*
X148485321Y-116263827D01*
X148974601Y-116876743D01*
X149442612Y-117416008D01*
X149894983Y-117887882D01*
X150337345Y-118298626D01*
X150775327Y-118654500D01*
X151105870Y-118890201D01*
X151397193Y-119068074D01*
X151732565Y-119244363D01*
X152080175Y-119404343D01*
X152408210Y-119533288D01*
X152664554Y-119611653D01*
X153074591Y-119684453D01*
X153518290Y-119716827D01*
X153952066Y-119707279D01*
X154271660Y-119666766D01*
X154864181Y-119503674D01*
X155432055Y-119243851D01*
X155974520Y-118887674D01*
X156162297Y-118736899D01*
X156307236Y-118624030D01*
X156425217Y-118565443D01*
X156559353Y-118544073D01*
X156654689Y-118542000D01*
X157324748Y-118502729D01*
X158004645Y-118389318D01*
X158166336Y-118345434D01*
X154471211Y-118345434D01*
X154401990Y-118388850D01*
X154337000Y-118409146D01*
X154242166Y-118420057D01*
X154078136Y-118425404D01*
X153875598Y-118424393D01*
X153812000Y-118422734D01*
X153520335Y-118401675D01*
X153279667Y-118353228D01*
X153073061Y-118280965D01*
X152735082Y-118126647D01*
X152432615Y-117949928D01*
X152138694Y-117732283D01*
X151826353Y-117455189D01*
X151715622Y-117348504D01*
X151552213Y-117185717D01*
X151430756Y-117059044D01*
X151360248Y-116978368D01*
X151349687Y-116953574D01*
X151362000Y-116960044D01*
X151878796Y-117281015D01*
X152325335Y-117536974D01*
X152705425Y-117730100D01*
X152723616Y-117738545D01*
X152991941Y-117853553D01*
X153299251Y-117971084D01*
X153617748Y-118081788D01*
X153919634Y-118176318D01*
X154177111Y-118245325D01*
X154312623Y-118272899D01*
X154441239Y-118305757D01*
X154471211Y-118345434D01*
X158166336Y-118345434D01*
X158671346Y-118208372D01*
X159301814Y-117966493D01*
X159873016Y-117670284D01*
X160021877Y-117576749D01*
X160194053Y-117476569D01*
X160363292Y-117398705D01*
X160462000Y-117367546D01*
X160592191Y-117328868D01*
X160775172Y-117259003D01*
X160974554Y-117172005D01*
X161003635Y-117158343D01*
X161403614Y-116913932D01*
X161404261Y-116913324D01*
X156535126Y-116913324D01*
X156518541Y-116952964D01*
X156471804Y-117006562D01*
X156460775Y-117018304D01*
X156398222Y-117079987D01*
X156336057Y-117118123D01*
X156254945Y-117133294D01*
X156135550Y-117126084D01*
X155958535Y-117097077D01*
X155704566Y-117046856D01*
X155680004Y-117041871D01*
X155475679Y-116996311D01*
X155241595Y-116937703D01*
X154995849Y-116871399D01*
X154756538Y-116802751D01*
X154541758Y-116737112D01*
X154369606Y-116679832D01*
X154258178Y-116636265D01*
X154225571Y-116611763D01*
X154225609Y-116611725D01*
X154279689Y-116611518D01*
X154408226Y-116626696D01*
X154587387Y-116654236D01*
X154663696Y-116667298D01*
X154881827Y-116700485D01*
X155163032Y-116735875D01*
X155470594Y-116769176D01*
X155760271Y-116795493D01*
X156068232Y-116820627D01*
X156288113Y-116841291D01*
X156431498Y-116861172D01*
X156509974Y-116883955D01*
X156535126Y-116913324D01*
X161404261Y-116913324D01*
X161750426Y-116588485D01*
X162040724Y-116187672D01*
X162271162Y-115717162D01*
X162438393Y-115182625D01*
X162539070Y-114589730D01*
X162543138Y-114550239D01*
X162578319Y-114335234D01*
X162640107Y-114080285D01*
X162715743Y-113837374D01*
X162723117Y-113817000D01*
X162918828Y-113214625D01*
X162944009Y-113117000D01*
X161969671Y-113117000D01*
X161947860Y-113474634D01*
X161925761Y-113692420D01*
X161880757Y-113870975D01*
X161798461Y-114057795D01*
X161735785Y-114174634D01*
X161310322Y-114862818D01*
X160848380Y-115460636D01*
X160346783Y-115972017D01*
X160137000Y-116151083D01*
X159837000Y-116394118D01*
X159512000Y-116363127D01*
X159342708Y-116344419D01*
X159217802Y-116325804D01*
X159166167Y-116312068D01*
X159155455Y-116298606D01*
X159164998Y-116280854D01*
X159210516Y-116247682D01*
X159307726Y-116187959D01*
X159472347Y-116090557D01*
X159512000Y-116067192D01*
X160058467Y-115698975D01*
X160549152Y-115268407D01*
X160992041Y-114766579D01*
X161395124Y-114184582D01*
X161721144Y-113603158D01*
X161969671Y-113117000D01*
X162944009Y-113117000D01*
X163096697Y-112525062D01*
X163254319Y-111759924D01*
X163389289Y-110930822D01*
X163494611Y-110092000D01*
X163517583Y-109830205D01*
X163536858Y-109511679D01*
X163552329Y-109151590D01*
X163563890Y-108765108D01*
X163571435Y-108367401D01*
X163574857Y-107973638D01*
X163574051Y-107598988D01*
X163568910Y-107258620D01*
X163559328Y-106967703D01*
X163545198Y-106741405D01*
X163526415Y-106594895D01*
X163519294Y-106567000D01*
X163491735Y-106491362D01*
X163476423Y-106487530D01*
X163469054Y-106565607D01*
X163466014Y-106692000D01*
X163449781Y-107089249D01*
X163414794Y-107560990D01*
X163364009Y-108084101D01*
X163300383Y-108635458D01*
X163226874Y-109191940D01*
X163146437Y-109730423D01*
X163062029Y-110227784D01*
X162976607Y-110660902D01*
X162935249Y-110842786D01*
X162858854Y-111147302D01*
X162777883Y-111447634D01*
X162696960Y-111728919D01*
X162620711Y-111976292D01*
X162553759Y-112174892D01*
X162500730Y-112309853D01*
X162466247Y-112366313D01*
X162461161Y-112366481D01*
X162415233Y-112285541D01*
X162392276Y-112126543D01*
X162392253Y-111908747D01*
X162415127Y-111651410D01*
X162460861Y-111373794D01*
X162463083Y-111362935D01*
X162535510Y-110990273D01*
X162594363Y-110633583D01*
X162641036Y-110275890D01*
X162676919Y-109900219D01*
X162703406Y-109489593D01*
X162721889Y-109027038D01*
X162733761Y-108495578D01*
X162739574Y-107992000D01*
X162747368Y-107018257D01*
X162459554Y-107018257D01*
X162454752Y-107212542D01*
X162444833Y-107454453D01*
X162430668Y-107726632D01*
X162413126Y-108011720D01*
X162393078Y-108292360D01*
X162371392Y-108551193D01*
X162357623Y-108692000D01*
X162329847Y-108926690D01*
X162292942Y-109195805D01*
X162250192Y-109479713D01*
X162204878Y-109758783D01*
X162160284Y-110013384D01*
X162119693Y-110223884D01*
X162086387Y-110370653D01*
X162067138Y-110429092D01*
X162040141Y-110408785D01*
X161990621Y-110308636D01*
X161925347Y-110144420D01*
X161851082Y-109931909D01*
X161841946Y-109904092D01*
X161729459Y-109568643D01*
X161628865Y-109286952D01*
X161543971Y-109068599D01*
X161478581Y-108923163D01*
X161436502Y-108860221D01*
X161427208Y-108860125D01*
X161428888Y-108914263D01*
X161448805Y-109046695D01*
X161483657Y-109238059D01*
X161530142Y-109468996D01*
X161534828Y-109491269D01*
X161598668Y-109806506D01*
X161666664Y-110163210D01*
X161728925Y-110508606D01*
X161760956Y-110697887D01*
X161858295Y-111294530D01*
X161706358Y-111730765D01*
X161579221Y-112065284D01*
X161422009Y-112432109D01*
X161247962Y-112803688D01*
X161070320Y-113152472D01*
X160902325Y-113450908D01*
X160808539Y-113598985D01*
X160570107Y-113914765D01*
X160280764Y-114240068D01*
X159970826Y-114543415D01*
X159670609Y-114793329D01*
X159629014Y-114823742D01*
X159477685Y-114923250D01*
X159291332Y-115032885D01*
X159089924Y-115142549D01*
X158893430Y-115242143D01*
X158721816Y-115321571D01*
X158595053Y-115370732D01*
X158533108Y-115379531D01*
X158531894Y-115378560D01*
X158541098Y-115326578D01*
X158584334Y-115207900D01*
X158652804Y-115046193D01*
X158668015Y-115012391D01*
X158815634Y-114672679D01*
X158981693Y-114266043D01*
X159155320Y-113821169D01*
X159325645Y-113366741D01*
X159481797Y-112931442D01*
X159612905Y-112543959D01*
X159661094Y-112392000D01*
X159744419Y-112113478D01*
X159834322Y-111798690D01*
X159926756Y-111463351D01*
X160017677Y-111123175D01*
X160103038Y-110793879D01*
X160178794Y-110491179D01*
X160240898Y-110230789D01*
X160285305Y-110028426D01*
X160307969Y-109899806D01*
X160310026Y-109871304D01*
X160291796Y-109890461D01*
X160240944Y-109992663D01*
X160161768Y-110168019D01*
X160058566Y-110406638D01*
X159935638Y-110698631D01*
X159797282Y-111034107D01*
X159692552Y-111292000D01*
X159472978Y-111831631D01*
X159279923Y-112294934D01*
X159105232Y-112699375D01*
X158940750Y-113062422D01*
X158778322Y-113401541D01*
X158609793Y-113734199D01*
X158427008Y-114077865D01*
X158221811Y-114450004D01*
X158199641Y-114489642D01*
X158000214Y-114843221D01*
X157841145Y-115117964D01*
X157715821Y-115323317D01*
X157617630Y-115468727D01*
X157539961Y-115563640D01*
X157476201Y-115617504D01*
X157419739Y-115639766D01*
X157393094Y-115642000D01*
X157302474Y-115615366D01*
X157153157Y-115543482D01*
X156968416Y-115438372D01*
X156829555Y-115350855D01*
X156625743Y-115210623D01*
X156373331Y-115027319D01*
X156100517Y-114821922D01*
X155835497Y-114615411D01*
X155761583Y-114556262D01*
X155713653Y-114517000D01*
X152812000Y-114517000D01*
X152787000Y-114542000D01*
X152762000Y-114517000D01*
X152787000Y-114492000D01*
X152812000Y-114517000D01*
X155713653Y-114517000D01*
X155662049Y-114474728D01*
X152712000Y-114474728D01*
X152673779Y-114465257D01*
X152559531Y-114392000D01*
X152369879Y-114255398D01*
X152105447Y-114055888D01*
X151971345Y-113952753D01*
X151802960Y-113818999D01*
X151671957Y-113707867D01*
X151593714Y-113632865D01*
X151579093Y-113608240D01*
X151623133Y-113629426D01*
X151727852Y-113700093D01*
X151876004Y-113807051D01*
X152050344Y-113937109D01*
X152233625Y-114077077D01*
X152408602Y-114213765D01*
X152558030Y-114333984D01*
X152664661Y-114424542D01*
X152711251Y-114472249D01*
X152712000Y-114474728D01*
X155662049Y-114474728D01*
X155546375Y-114379974D01*
X155310090Y-114181670D01*
X155064178Y-113971487D01*
X154820087Y-113759563D01*
X154589266Y-113556038D01*
X154383164Y-113371050D01*
X154213230Y-113214737D01*
X154090912Y-113097237D01*
X154027659Y-113028689D01*
X154021939Y-113015727D01*
X154071955Y-112993809D01*
X154197301Y-112944825D01*
X154379341Y-112875916D01*
X154599438Y-112794225D01*
X154610685Y-112790088D01*
X155775243Y-112310850D01*
X156899420Y-111745931D01*
X157976463Y-111100322D01*
X158999620Y-110379013D01*
X159962138Y-109586995D01*
X160857266Y-108729258D01*
X161678249Y-107810792D01*
X162134787Y-107229500D01*
X162261046Y-107063794D01*
X162365176Y-106933457D01*
X162432983Y-106855922D01*
X162450331Y-106842000D01*
X162458370Y-106888957D01*
X162459554Y-107018257D01*
X162747368Y-107018257D01*
X162752582Y-106367000D01*
X163086889Y-105817000D01*
X163697093Y-104717666D01*
X164218076Y-103574089D01*
X164650025Y-102385713D01*
X164993125Y-101151982D01*
X165247562Y-99872342D01*
X165368188Y-98992000D01*
X165391499Y-98713548D01*
X165408784Y-98358128D01*
X165420043Y-97948589D01*
X165425277Y-97507780D01*
X165424485Y-97058551D01*
X165417666Y-96623750D01*
X165404823Y-96226229D01*
X165385953Y-95888835D01*
X165368188Y-95692000D01*
X165171988Y-94378906D01*
X164885813Y-93109418D01*
X164509570Y-91883309D01*
X164043167Y-90700353D01*
X163486509Y-89560321D01*
X162839504Y-88462986D01*
X162102058Y-87408122D01*
X161817041Y-87042000D01*
X161562494Y-86738748D01*
X161252431Y-86392862D01*
X160907879Y-86026059D01*
X160549865Y-85660055D01*
X160199416Y-85316568D01*
X159877559Y-85017315D01*
X159737000Y-84893704D01*
X158731398Y-84095466D01*
X157674075Y-83382057D01*
X156568823Y-82755130D01*
X155419436Y-82216336D01*
X154229708Y-81767329D01*
X153003430Y-81409762D01*
X151744397Y-81145288D01*
X150837000Y-81015430D01*
X150464903Y-80981761D01*
X150021367Y-80956893D01*
X149532345Y-80941026D01*
X149023792Y-80934361D01*
X148521662Y-80937097D01*
X148051909Y-80949436D01*
X147640488Y-80971578D01*
X147437000Y-80989178D01*
X146142146Y-81170486D01*
X144887542Y-81443215D01*
X143672120Y-81807804D01*
X142494817Y-82264695D01*
X141354566Y-82814326D01*
X140250300Y-83457138D01*
X139180956Y-84193572D01*
X138612000Y-84634893D01*
X138393752Y-84819725D01*
X138133432Y-85053960D01*
X137846214Y-85322631D01*
X137547269Y-85610768D01*
X137251770Y-85903405D01*
X136974890Y-86185573D01*
X136731800Y-86442304D01*
X136537673Y-86658629D01*
X136437000Y-86780622D01*
X136331219Y-86912399D01*
X136249875Y-87005709D01*
X136212000Y-87039439D01*
X136184346Y-86996818D01*
X136117436Y-86875207D01*
X136016723Y-86685065D01*
X135887660Y-86436852D01*
X135735700Y-86141026D01*
X135566297Y-85808047D01*
X135450573Y-85578945D01*
X135091759Y-84873969D01*
X134746679Y-84210417D01*
X134418321Y-83593463D01*
X134109677Y-83028280D01*
X133823734Y-82520045D01*
X133563484Y-82073929D01*
X133331916Y-81695107D01*
X133132019Y-81388754D01*
X132966785Y-81160044D01*
X132839201Y-81014150D01*
X132788989Y-80972900D01*
X132702165Y-80921388D01*
X132671024Y-80921749D01*
D11*
X189230000Y-71628000D02*
X189230000Y-97028000D01*
X187706000Y-71628000D02*
X189230000Y-71628000D01*
X189230000Y-97028000D02*
X187706000Y-97028000D01*
X182626000Y-71628000D02*
X182626000Y-97028000D01*
X187706000Y-97028000D02*
X187706000Y-71628000D01*
X182626000Y-71628000D02*
X187706000Y-71628000D01*
X182626000Y-97028000D02*
X187706000Y-97028000D01*
M02*
