G04 #@! TF.GenerationSoftware,KiCad,Pcbnew,(5.1.2)-1*
G04 #@! TF.CreationDate,2019-07-26T16:38:25-05:00*
G04 #@! TF.ProjectId,Austin_Christman_BIZ_Card,41757374-696e-45f4-9368-726973746d61,rev?*
G04 #@! TF.SameCoordinates,Original*
G04 #@! TF.FileFunction,Legend,Top*
G04 #@! TF.FilePolarity,Positive*
%FSLAX46Y46*%
G04 Gerber Fmt 4.6, Leading zero omitted, Abs format (unit mm)*
G04 Created by KiCad (PCBNEW (5.1.2)-1) date 2019-07-26 16:38:25*
%MOMM*%
%LPD*%
G04 APERTURE LIST*
%ADD10C,0.404000*%
%ADD11C,0.254000*%
%ADD12C,0.658000*%
%ADD13C,0.912000*%
%ADD14C,0.152400*%
%ADD15C,0.150000*%
%ADD16C,0.120000*%
G04 APERTURE END LIST*
D10*
X110711809Y-98423809D02*
X110711809Y-97101714D01*
X110591619Y-96861333D01*
X110351238Y-96741142D01*
X109870476Y-96741142D01*
X109630095Y-96861333D01*
X110711809Y-98303619D02*
X110471428Y-98423809D01*
X109870476Y-98423809D01*
X109630095Y-98303619D01*
X109509904Y-98063238D01*
X109509904Y-97822857D01*
X109630095Y-97582476D01*
X109870476Y-97462285D01*
X110471428Y-97462285D01*
X110711809Y-97342095D01*
X112995428Y-98303619D02*
X112755047Y-98423809D01*
X112274285Y-98423809D01*
X112033904Y-98303619D01*
X111913714Y-98183428D01*
X111793523Y-97943047D01*
X111793523Y-97221904D01*
X111913714Y-96981523D01*
X112033904Y-96861333D01*
X112274285Y-96741142D01*
X112755047Y-96741142D01*
X112995428Y-96861333D01*
X115158857Y-98303619D02*
X114918476Y-98423809D01*
X114437714Y-98423809D01*
X114197333Y-98303619D01*
X114077142Y-98183428D01*
X113956952Y-97943047D01*
X113956952Y-97221904D01*
X114077142Y-96981523D01*
X114197333Y-96861333D01*
X114437714Y-96741142D01*
X114918476Y-96741142D01*
X115158857Y-96861333D01*
X116000190Y-98423809D02*
X117322285Y-96741142D01*
X116000190Y-96741142D02*
X117322285Y-98423809D01*
X119365523Y-98423809D02*
X119365523Y-95899809D01*
X119365523Y-98303619D02*
X119125142Y-98423809D01*
X118644380Y-98423809D01*
X118404000Y-98303619D01*
X118283809Y-98183428D01*
X118163619Y-97943047D01*
X118163619Y-97221904D01*
X118283809Y-96981523D01*
X118404000Y-96861333D01*
X118644380Y-96741142D01*
X119125142Y-96741142D01*
X119365523Y-96861333D01*
X121649142Y-96741142D02*
X121649142Y-98423809D01*
X121048190Y-95779619D02*
X120447238Y-97582476D01*
X122009714Y-97582476D01*
X124533714Y-97221904D02*
X124413523Y-97101714D01*
X124173142Y-96981523D01*
X123932761Y-96981523D01*
X123692380Y-97101714D01*
X123572190Y-97221904D01*
X123452000Y-97462285D01*
X123452000Y-97702666D01*
X123572190Y-97943047D01*
X123692380Y-98063238D01*
X123932761Y-98183428D01*
X124173142Y-98183428D01*
X124413523Y-98063238D01*
X124533714Y-97943047D01*
X124533714Y-96981523D02*
X124533714Y-97943047D01*
X124653904Y-98063238D01*
X124774095Y-98063238D01*
X125014476Y-97943047D01*
X125134666Y-97702666D01*
X125134666Y-97101714D01*
X124894285Y-96741142D01*
X124533714Y-96500761D01*
X124052952Y-96380571D01*
X123572190Y-96500761D01*
X123211619Y-96741142D01*
X122971238Y-97101714D01*
X122851047Y-97582476D01*
X122971238Y-98063238D01*
X123211619Y-98423809D01*
X123572190Y-98664190D01*
X124052952Y-98784380D01*
X124533714Y-98664190D01*
X124894285Y-98423809D01*
X126216380Y-98423809D02*
X126216380Y-96741142D01*
X126216380Y-96981523D02*
X126336571Y-96861333D01*
X126576952Y-96741142D01*
X126937523Y-96741142D01*
X127177904Y-96861333D01*
X127298095Y-97101714D01*
X127298095Y-98423809D01*
X127298095Y-97101714D02*
X127418285Y-96861333D01*
X127658666Y-96741142D01*
X128019238Y-96741142D01*
X128259619Y-96861333D01*
X128379809Y-97101714D01*
X128379809Y-98423809D01*
X129461523Y-98303619D02*
X129701904Y-98423809D01*
X130182666Y-98423809D01*
X130423047Y-98303619D01*
X130543238Y-98063238D01*
X130543238Y-97943047D01*
X130423047Y-97702666D01*
X130182666Y-97582476D01*
X129822095Y-97582476D01*
X129581714Y-97462285D01*
X129461523Y-97221904D01*
X129461523Y-97101714D01*
X129581714Y-96861333D01*
X129822095Y-96741142D01*
X130182666Y-96741142D01*
X130423047Y-96861333D01*
X131264380Y-96741142D02*
X132225904Y-96741142D01*
X131624952Y-95899809D02*
X131624952Y-98063238D01*
X131745142Y-98303619D01*
X131985523Y-98423809D01*
X132225904Y-98423809D01*
X133067238Y-98183428D02*
X133187428Y-98303619D01*
X133067238Y-98423809D01*
X132947047Y-98303619D01*
X133067238Y-98183428D01*
X133067238Y-98423809D01*
X135230666Y-98303619D02*
X134990285Y-98423809D01*
X134509523Y-98423809D01*
X134269142Y-98303619D01*
X134148952Y-98063238D01*
X134148952Y-97101714D01*
X134269142Y-96861333D01*
X134509523Y-96741142D01*
X134990285Y-96741142D01*
X135230666Y-96861333D01*
X135350857Y-97101714D01*
X135350857Y-97342095D01*
X134148952Y-97582476D01*
X137514285Y-98423809D02*
X137514285Y-95899809D01*
X137514285Y-98303619D02*
X137273904Y-98423809D01*
X136793142Y-98423809D01*
X136552761Y-98303619D01*
X136432571Y-98183428D01*
X136312380Y-97943047D01*
X136312380Y-97221904D01*
X136432571Y-96981523D01*
X136552761Y-96861333D01*
X136793142Y-96741142D01*
X137273904Y-96741142D01*
X137514285Y-96861333D01*
X139797904Y-96741142D02*
X139797904Y-98423809D01*
X138716190Y-96741142D02*
X138716190Y-98063238D01*
X138836380Y-98303619D01*
X139076761Y-98423809D01*
X139437333Y-98423809D01*
X139677714Y-98303619D01*
X139797904Y-98183428D01*
X109632476Y-94105809D02*
X109632476Y-91581809D01*
X110594000Y-91581809D01*
X110834380Y-91702000D01*
X110954571Y-91822190D01*
X111074761Y-92062571D01*
X111074761Y-92423142D01*
X110954571Y-92663523D01*
X110834380Y-92783714D01*
X110594000Y-92903904D01*
X109632476Y-92903904D01*
X112156476Y-93865428D02*
X112276666Y-93985619D01*
X112156476Y-94105809D01*
X112036285Y-93985619D01*
X112156476Y-93865428D01*
X112156476Y-94105809D01*
X112156476Y-92543333D02*
X112276666Y-92663523D01*
X112156476Y-92783714D01*
X112036285Y-92663523D01*
X112156476Y-92543333D01*
X112156476Y-92783714D01*
X116363142Y-91581809D02*
X115882380Y-91581809D01*
X115642000Y-91702000D01*
X115521809Y-91822190D01*
X115281428Y-92182761D01*
X115161238Y-92663523D01*
X115161238Y-93625047D01*
X115281428Y-93865428D01*
X115401619Y-93985619D01*
X115642000Y-94105809D01*
X116122761Y-94105809D01*
X116363142Y-93985619D01*
X116483333Y-93865428D01*
X116603523Y-93625047D01*
X116603523Y-93024095D01*
X116483333Y-92783714D01*
X116363142Y-92663523D01*
X116122761Y-92543333D01*
X115642000Y-92543333D01*
X115401619Y-92663523D01*
X115281428Y-92783714D01*
X115161238Y-93024095D01*
X117444857Y-91581809D02*
X119007333Y-91581809D01*
X118166000Y-92543333D01*
X118526571Y-92543333D01*
X118766952Y-92663523D01*
X118887142Y-92783714D01*
X119007333Y-93024095D01*
X119007333Y-93625047D01*
X118887142Y-93865428D01*
X118766952Y-93985619D01*
X118526571Y-94105809D01*
X117805428Y-94105809D01*
X117565047Y-93985619D01*
X117444857Y-93865428D01*
X121170761Y-91581809D02*
X120690000Y-91581809D01*
X120449619Y-91702000D01*
X120329428Y-91822190D01*
X120089047Y-92182761D01*
X119968857Y-92663523D01*
X119968857Y-93625047D01*
X120089047Y-93865428D01*
X120209238Y-93985619D01*
X120449619Y-94105809D01*
X120930380Y-94105809D01*
X121170761Y-93985619D01*
X121290952Y-93865428D01*
X121411142Y-93625047D01*
X121411142Y-93024095D01*
X121290952Y-92783714D01*
X121170761Y-92663523D01*
X120930380Y-92543333D01*
X120449619Y-92543333D01*
X120209238Y-92663523D01*
X120089047Y-92783714D01*
X119968857Y-93024095D01*
X122492857Y-93144285D02*
X124415904Y-93144285D01*
X125497619Y-91822190D02*
X125617809Y-91702000D01*
X125858190Y-91581809D01*
X126459142Y-91581809D01*
X126699523Y-91702000D01*
X126819714Y-91822190D01*
X126939904Y-92062571D01*
X126939904Y-92302952D01*
X126819714Y-92663523D01*
X125377428Y-94105809D01*
X126939904Y-94105809D01*
X128141809Y-94105809D02*
X128622571Y-94105809D01*
X128862952Y-93985619D01*
X128983142Y-93865428D01*
X129223523Y-93504857D01*
X129343714Y-93024095D01*
X129343714Y-92062571D01*
X129223523Y-91822190D01*
X129103333Y-91702000D01*
X128862952Y-91581809D01*
X128382190Y-91581809D01*
X128141809Y-91702000D01*
X128021619Y-91822190D01*
X127901428Y-92062571D01*
X127901428Y-92663523D01*
X128021619Y-92903904D01*
X128141809Y-93024095D01*
X128382190Y-93144285D01*
X128862952Y-93144285D01*
X129103333Y-93024095D01*
X129223523Y-92903904D01*
X129343714Y-92663523D01*
X131627333Y-91581809D02*
X130425428Y-91581809D01*
X130305238Y-92783714D01*
X130425428Y-92663523D01*
X130665809Y-92543333D01*
X131266761Y-92543333D01*
X131507142Y-92663523D01*
X131627333Y-92783714D01*
X131747523Y-93024095D01*
X131747523Y-93625047D01*
X131627333Y-93865428D01*
X131507142Y-93985619D01*
X131266761Y-94105809D01*
X130665809Y-94105809D01*
X130425428Y-93985619D01*
X130305238Y-93865428D01*
X132829238Y-93144285D02*
X134752285Y-93144285D01*
X135713809Y-91581809D02*
X137396476Y-91581809D01*
X136314761Y-94105809D01*
X138117619Y-91581809D02*
X139680095Y-91581809D01*
X138838761Y-92543333D01*
X139199333Y-92543333D01*
X139439714Y-92663523D01*
X139559904Y-92783714D01*
X139680095Y-93024095D01*
X139680095Y-93625047D01*
X139559904Y-93865428D01*
X139439714Y-93985619D01*
X139199333Y-94105809D01*
X138478190Y-94105809D01*
X138237809Y-93985619D01*
X138117619Y-93865428D01*
X141122380Y-92663523D02*
X140882000Y-92543333D01*
X140761809Y-92423142D01*
X140641619Y-92182761D01*
X140641619Y-92062571D01*
X140761809Y-91822190D01*
X140882000Y-91702000D01*
X141122380Y-91581809D01*
X141603142Y-91581809D01*
X141843523Y-91702000D01*
X141963714Y-91822190D01*
X142083904Y-92062571D01*
X142083904Y-92182761D01*
X141963714Y-92423142D01*
X141843523Y-92543333D01*
X141603142Y-92663523D01*
X141122380Y-92663523D01*
X140882000Y-92783714D01*
X140761809Y-92903904D01*
X140641619Y-93144285D01*
X140641619Y-93625047D01*
X140761809Y-93865428D01*
X140882000Y-93985619D01*
X141122380Y-94105809D01*
X141603142Y-94105809D01*
X141843523Y-93985619D01*
X141963714Y-93865428D01*
X142083904Y-93625047D01*
X142083904Y-93144285D01*
X141963714Y-92903904D01*
X141843523Y-92783714D01*
X141603142Y-92663523D01*
X144247333Y-92423142D02*
X144247333Y-94105809D01*
X143646380Y-91461619D02*
X143045428Y-93264476D01*
X144607904Y-93264476D01*
D11*
X117256076Y-114737847D02*
X117159314Y-114689466D01*
X117110933Y-114641085D01*
X117062552Y-114544323D01*
X117062552Y-114495942D01*
X117110933Y-114399180D01*
X117159314Y-114350800D01*
X117256076Y-114302419D01*
X117449600Y-114302419D01*
X117546361Y-114350800D01*
X117594742Y-114399180D01*
X117643123Y-114495942D01*
X117643123Y-114544323D01*
X117594742Y-114641085D01*
X117546361Y-114689466D01*
X117449600Y-114737847D01*
X117256076Y-114737847D01*
X117159314Y-114786228D01*
X117110933Y-114834609D01*
X117062552Y-114931371D01*
X117062552Y-115124895D01*
X117110933Y-115221657D01*
X117159314Y-115270038D01*
X117256076Y-115318419D01*
X117449600Y-115318419D01*
X117546361Y-115270038D01*
X117594742Y-115221657D01*
X117643123Y-115124895D01*
X117643123Y-114931371D01*
X117594742Y-114834609D01*
X117546361Y-114786228D01*
X117449600Y-114737847D01*
X118078552Y-114931371D02*
X118852647Y-114931371D01*
X119239695Y-114302419D02*
X119917028Y-114302419D01*
X119481600Y-115318419D01*
D12*
X110845327Y-86191000D02*
X110664660Y-86371667D01*
X110122660Y-86552333D01*
X109761326Y-86552333D01*
X109219326Y-86371667D01*
X108857993Y-86010333D01*
X108677326Y-85649000D01*
X108496659Y-84926333D01*
X108496659Y-84384333D01*
X108677326Y-83661666D01*
X108857993Y-83300332D01*
X109219326Y-82938999D01*
X109761326Y-82758332D01*
X110122660Y-82758332D01*
X110664660Y-82938999D01*
X110845327Y-83119666D01*
X113013327Y-86552333D02*
X112651994Y-86371667D01*
X112471327Y-86191000D01*
X112290660Y-85829666D01*
X112290660Y-84745666D01*
X112471327Y-84384333D01*
X112651994Y-84203666D01*
X113013327Y-84022999D01*
X113555327Y-84022999D01*
X113916661Y-84203666D01*
X114097327Y-84384333D01*
X114277994Y-84745666D01*
X114277994Y-85829666D01*
X114097327Y-86191000D01*
X113916661Y-86371667D01*
X113555327Y-86552333D01*
X113013327Y-86552333D01*
X115903995Y-86552333D02*
X115903995Y-84022999D01*
X115903995Y-84384333D02*
X116084661Y-84203666D01*
X116445995Y-84022999D01*
X116987995Y-84022999D01*
X117349328Y-84203666D01*
X117529995Y-84564999D01*
X117529995Y-86552333D01*
X117529995Y-84564999D02*
X117710662Y-84203666D01*
X118071995Y-84022999D01*
X118613995Y-84022999D01*
X118975329Y-84203666D01*
X119155995Y-84564999D01*
X119155995Y-86552333D01*
X120962663Y-84022999D02*
X120962663Y-87817000D01*
X120962663Y-84203666D02*
X121323996Y-84022999D01*
X122046663Y-84022999D01*
X122407996Y-84203666D01*
X122588663Y-84384333D01*
X122769330Y-84745666D01*
X122769330Y-85829666D01*
X122588663Y-86191000D01*
X122407996Y-86371667D01*
X122046663Y-86552333D01*
X121323996Y-86552333D01*
X120962663Y-86371667D01*
X126021331Y-84022999D02*
X126021331Y-86552333D01*
X124395330Y-84022999D02*
X124395330Y-86010333D01*
X124575997Y-86371667D01*
X124937330Y-86552333D01*
X125479330Y-86552333D01*
X125840664Y-86371667D01*
X126021331Y-86191000D01*
X127285998Y-84022999D02*
X128731331Y-84022999D01*
X127827998Y-82758332D02*
X127827998Y-86010333D01*
X128008664Y-86371667D01*
X128369998Y-86552333D01*
X128731331Y-86552333D01*
X131441332Y-86371667D02*
X131079999Y-86552333D01*
X130357332Y-86552333D01*
X129995998Y-86371667D01*
X129815332Y-86010333D01*
X129815332Y-84564999D01*
X129995998Y-84203666D01*
X130357332Y-84022999D01*
X131079999Y-84022999D01*
X131441332Y-84203666D01*
X131621999Y-84564999D01*
X131621999Y-84926333D01*
X129815332Y-85287666D01*
X133247999Y-86552333D02*
X133247999Y-84022999D01*
X133247999Y-84745666D02*
X133428666Y-84384333D01*
X133609333Y-84203666D01*
X133970666Y-84022999D01*
X134331999Y-84022999D01*
X138487334Y-84564999D02*
X139752001Y-84564999D01*
X140294001Y-86552333D02*
X138487334Y-86552333D01*
X138487334Y-82758332D01*
X140294001Y-82758332D01*
X141920001Y-84022999D02*
X141920001Y-86552333D01*
X141920001Y-84384333D02*
X142100668Y-84203666D01*
X142462002Y-84022999D01*
X143004002Y-84022999D01*
X143365335Y-84203666D01*
X143546002Y-84564999D01*
X143546002Y-86552333D01*
X146978669Y-84022999D02*
X146978669Y-87094333D01*
X146798003Y-87455667D01*
X146617336Y-87636334D01*
X146256003Y-87817000D01*
X145714002Y-87817000D01*
X145352669Y-87636334D01*
X146978669Y-86371667D02*
X146617336Y-86552333D01*
X145894669Y-86552333D01*
X145533336Y-86371667D01*
X145352669Y-86191000D01*
X145172002Y-85829666D01*
X145172002Y-84745666D01*
X145352669Y-84384333D01*
X145533336Y-84203666D01*
X145894669Y-84022999D01*
X146617336Y-84022999D01*
X146978669Y-84203666D01*
X148785337Y-86552333D02*
X148785337Y-84022999D01*
X148785337Y-82758332D02*
X148604670Y-82938999D01*
X148785337Y-83119666D01*
X148966003Y-82938999D01*
X148785337Y-82758332D01*
X148785337Y-83119666D01*
X150592004Y-84022999D02*
X150592004Y-86552333D01*
X150592004Y-84384333D02*
X150772670Y-84203666D01*
X151134004Y-84022999D01*
X151676004Y-84022999D01*
X152037337Y-84203666D01*
X152218004Y-84564999D01*
X152218004Y-86552333D01*
X155470005Y-86371667D02*
X155108672Y-86552333D01*
X154386005Y-86552333D01*
X154024671Y-86371667D01*
X153844005Y-86010333D01*
X153844005Y-84564999D01*
X154024671Y-84203666D01*
X154386005Y-84022999D01*
X155108672Y-84022999D01*
X155470005Y-84203666D01*
X155650672Y-84564999D01*
X155650672Y-84926333D01*
X153844005Y-85287666D01*
X158722006Y-86371667D02*
X158360672Y-86552333D01*
X157638006Y-86552333D01*
X157276672Y-86371667D01*
X157096005Y-86010333D01*
X157096005Y-84564999D01*
X157276672Y-84203666D01*
X157638006Y-84022999D01*
X158360672Y-84022999D01*
X158722006Y-84203666D01*
X158902673Y-84564999D01*
X158902673Y-84926333D01*
X157096005Y-85287666D01*
X160528673Y-86552333D02*
X160528673Y-84022999D01*
X160528673Y-84745666D02*
X160709340Y-84384333D01*
X160890006Y-84203666D01*
X161251340Y-84022999D01*
X161612673Y-84022999D01*
D13*
X108992850Y-78123999D02*
X111404279Y-78123999D01*
X108510565Y-79570856D02*
X110198565Y-74506855D01*
X111886565Y-79570856D01*
X115744852Y-76194855D02*
X115744852Y-79570856D01*
X113574566Y-76194855D02*
X113574566Y-78847427D01*
X113815709Y-79329713D01*
X114297994Y-79570856D01*
X115021423Y-79570856D01*
X115503709Y-79329713D01*
X115744852Y-79088570D01*
X117915138Y-79329713D02*
X118397424Y-79570856D01*
X119361995Y-79570856D01*
X119844281Y-79329713D01*
X120085424Y-78847427D01*
X120085424Y-78606284D01*
X119844281Y-78123999D01*
X119361995Y-77882856D01*
X118638567Y-77882856D01*
X118156281Y-77641713D01*
X117915138Y-77159427D01*
X117915138Y-76918284D01*
X118156281Y-76435998D01*
X118638567Y-76194855D01*
X119361995Y-76194855D01*
X119844281Y-76435998D01*
X121532281Y-76194855D02*
X123461425Y-76194855D01*
X122255710Y-74506855D02*
X122255710Y-78847427D01*
X122496853Y-79329713D01*
X122979139Y-79570856D01*
X123461425Y-79570856D01*
X125149425Y-79570856D02*
X125149425Y-76194855D01*
X125149425Y-74506855D02*
X124908282Y-74747998D01*
X125149425Y-74989141D01*
X125390568Y-74747998D01*
X125149425Y-74506855D01*
X125149425Y-74989141D01*
X127560854Y-76194855D02*
X127560854Y-79570856D01*
X127560854Y-76677141D02*
X127801997Y-76435998D01*
X128284283Y-76194855D01*
X129007712Y-76194855D01*
X129489997Y-76435998D01*
X129731140Y-76918284D01*
X129731140Y-79570856D01*
X138894571Y-79088570D02*
X138653428Y-79329713D01*
X137929999Y-79570856D01*
X137447713Y-79570856D01*
X136724284Y-79329713D01*
X136241999Y-78847427D01*
X136000856Y-78365142D01*
X135759713Y-77400570D01*
X135759713Y-76677141D01*
X136000856Y-75712570D01*
X136241999Y-75230284D01*
X136724284Y-74747998D01*
X137447713Y-74506855D01*
X137929999Y-74506855D01*
X138653428Y-74747998D01*
X138894571Y-74989141D01*
X141064857Y-79570856D02*
X141064857Y-74506855D01*
X143235143Y-79570856D02*
X143235143Y-76918284D01*
X142994000Y-76435998D01*
X142511714Y-76194855D01*
X141788285Y-76194855D01*
X141306000Y-76435998D01*
X141064857Y-76677141D01*
X145646572Y-79570856D02*
X145646572Y-76194855D01*
X145646572Y-77159427D02*
X145887715Y-76677141D01*
X146128858Y-76435998D01*
X146611144Y-76194855D01*
X147093429Y-76194855D01*
X148781430Y-79570856D02*
X148781430Y-76194855D01*
X148781430Y-74506855D02*
X148540287Y-74747998D01*
X148781430Y-74989141D01*
X149022573Y-74747998D01*
X148781430Y-74506855D01*
X148781430Y-74989141D01*
X150951716Y-79329713D02*
X151434002Y-79570856D01*
X152398573Y-79570856D01*
X152880859Y-79329713D01*
X153122002Y-78847427D01*
X153122002Y-78606284D01*
X152880859Y-78123999D01*
X152398573Y-77882856D01*
X151675145Y-77882856D01*
X151192859Y-77641713D01*
X150951716Y-77159427D01*
X150951716Y-76918284D01*
X151192859Y-76435998D01*
X151675145Y-76194855D01*
X152398573Y-76194855D01*
X152880859Y-76435998D01*
X154568859Y-76194855D02*
X156498003Y-76194855D01*
X155292288Y-74506855D02*
X155292288Y-78847427D01*
X155533431Y-79329713D01*
X156015717Y-79570856D01*
X156498003Y-79570856D01*
X158186003Y-79570856D02*
X158186003Y-76194855D01*
X158186003Y-76677141D02*
X158427146Y-76435998D01*
X158909432Y-76194855D01*
X159632860Y-76194855D01*
X160115146Y-76435998D01*
X160356289Y-76918284D01*
X160356289Y-79570856D01*
X160356289Y-76918284D02*
X160597432Y-76435998D01*
X161079718Y-76194855D01*
X161803147Y-76194855D01*
X162285432Y-76435998D01*
X162526575Y-76918284D01*
X162526575Y-79570856D01*
X167108290Y-79570856D02*
X167108290Y-76918284D01*
X166867148Y-76435998D01*
X166384862Y-76194855D01*
X165420290Y-76194855D01*
X164938004Y-76435998D01*
X167108290Y-79329713D02*
X166626005Y-79570856D01*
X165420290Y-79570856D01*
X164938004Y-79329713D01*
X164696861Y-78847427D01*
X164696861Y-78365142D01*
X164938004Y-77882856D01*
X165420290Y-77641713D01*
X166626005Y-77641713D01*
X167108290Y-77400570D01*
X169519720Y-76194855D02*
X169519720Y-79570856D01*
X169519720Y-76677141D02*
X169760862Y-76435998D01*
X170243148Y-76194855D01*
X170966577Y-76194855D01*
X171448863Y-76435998D01*
X171690006Y-76918284D01*
X171690006Y-79570856D01*
D14*
X165277800Y-92934730D02*
X165277800Y-91935300D01*
X149174200Y-108233270D02*
X149174200Y-109232700D01*
X149174200Y-91935300D02*
X149174200Y-92934732D01*
X165277800Y-91935300D02*
X149174200Y-91935300D01*
X165277800Y-109232700D02*
X165277800Y-108233268D01*
X149174200Y-109232700D02*
X165277800Y-109232700D01*
D15*
X157226000Y-92608400D02*
G75*
G03X157886400Y-91948000I0J660400D01*
G01*
X156565600Y-91948000D02*
G75*
G03X157226000Y-92608400I660400J0D01*
G01*
D14*
X112458500Y-103783966D02*
X112458500Y-109068034D01*
X126809500Y-109068034D02*
X126809500Y-103783966D01*
D16*
X188334000Y-112850000D02*
X188334000Y-111350000D01*
X188334000Y-111350000D02*
X187644000Y-111350000D01*
X187644000Y-111350000D02*
X187644000Y-106225000D01*
X177934000Y-112850000D02*
X177934000Y-111350000D01*
X177934000Y-111350000D02*
X178624000Y-111350000D01*
X178624000Y-111350000D02*
X178624000Y-110250000D01*
X111467000Y-116063000D02*
X109767000Y-116063000D01*
X109767000Y-116063000D02*
X109767000Y-119213000D01*
X111467000Y-116063000D02*
X111467000Y-119213000D01*
X125246500Y-117968000D02*
X123546500Y-117968000D01*
X123546500Y-117968000D02*
X123546500Y-121118000D01*
X125246500Y-117968000D02*
X125246500Y-121118000D01*
X109222000Y-117430733D02*
X109222000Y-117773267D01*
X108202000Y-117430733D02*
X108202000Y-117773267D01*
X113032000Y-117430733D02*
X113032000Y-117773267D01*
X112012000Y-117430733D02*
X112012000Y-117773267D01*
X126875000Y-119603733D02*
X126875000Y-119946267D01*
X125855000Y-119603733D02*
X125855000Y-119946267D01*
D15*
X121177500Y-122521500D02*
X121177500Y-121866500D01*
X115677500Y-122521500D02*
X115677500Y-121771500D01*
X115677500Y-116111500D02*
X115677500Y-116861500D01*
X121177500Y-116111500D02*
X121177500Y-116861500D01*
X121177500Y-122521500D02*
X115677500Y-122521500D01*
X121177500Y-116111500D02*
X115677500Y-116111500D01*
X121177500Y-121866500D02*
X122927500Y-121866500D01*
D16*
X113032000Y-120796233D02*
X113032000Y-121138767D01*
X112012000Y-120796233D02*
X112012000Y-121138767D01*
D15*
X177395119Y-114395238D02*
X177347500Y-114490476D01*
X177252261Y-114585714D01*
X177109404Y-114728571D01*
X177061785Y-114823809D01*
X177061785Y-114919047D01*
X177299880Y-114871428D02*
X177252261Y-114966666D01*
X177157023Y-115061904D01*
X176966547Y-115109523D01*
X176633214Y-115109523D01*
X176442738Y-115061904D01*
X176347500Y-114966666D01*
X176299880Y-114871428D01*
X176299880Y-114680952D01*
X176347500Y-114585714D01*
X176442738Y-114490476D01*
X176633214Y-114442857D01*
X176966547Y-114442857D01*
X177157023Y-114490476D01*
X177252261Y-114585714D01*
X177299880Y-114680952D01*
X177299880Y-114871428D01*
X176299880Y-113585714D02*
X176299880Y-113776190D01*
X176347500Y-113871428D01*
X176395119Y-113919047D01*
X176537976Y-114014285D01*
X176728452Y-114061904D01*
X177109404Y-114061904D01*
X177204642Y-114014285D01*
X177252261Y-113966666D01*
X177299880Y-113871428D01*
X177299880Y-113680952D01*
X177252261Y-113585714D01*
X177204642Y-113538095D01*
X177109404Y-113490476D01*
X176871309Y-113490476D01*
X176776071Y-113538095D01*
X176728452Y-113585714D01*
X176680833Y-113680952D01*
X176680833Y-113871428D01*
X176728452Y-113966666D01*
X176776071Y-114014285D01*
X176871309Y-114061904D01*
X111196380Y-115768285D02*
X110196380Y-115768285D01*
X110196380Y-115530190D01*
X110244000Y-115387333D01*
X110339238Y-115292095D01*
X110434476Y-115244476D01*
X110624952Y-115196857D01*
X110767809Y-115196857D01*
X110958285Y-115244476D01*
X111053523Y-115292095D01*
X111148761Y-115387333D01*
X111196380Y-115530190D01*
X111196380Y-115768285D01*
X111196380Y-114244476D02*
X111196380Y-114815904D01*
X111196380Y-114530190D02*
X110196380Y-114530190D01*
X110339238Y-114625428D01*
X110434476Y-114720666D01*
X110482095Y-114815904D01*
X110196380Y-113911142D02*
X110196380Y-113292095D01*
X110577333Y-113625428D01*
X110577333Y-113482571D01*
X110624952Y-113387333D01*
X110672571Y-113339714D01*
X110767809Y-113292095D01*
X111005904Y-113292095D01*
X111101142Y-113339714D01*
X111148761Y-113387333D01*
X111196380Y-113482571D01*
X111196380Y-113768285D01*
X111148761Y-113863523D01*
X111101142Y-113911142D01*
X124912380Y-117621595D02*
X123912380Y-117621595D01*
X123912380Y-117383500D01*
X123960000Y-117240642D01*
X124055238Y-117145404D01*
X124150476Y-117097785D01*
X124340952Y-117050166D01*
X124483809Y-117050166D01*
X124674285Y-117097785D01*
X124769523Y-117145404D01*
X124864761Y-117240642D01*
X124912380Y-117383500D01*
X124912380Y-117621595D01*
X124007619Y-116669214D02*
X123960000Y-116621595D01*
X123912380Y-116526357D01*
X123912380Y-116288261D01*
X123960000Y-116193023D01*
X124007619Y-116145404D01*
X124102857Y-116097785D01*
X124198095Y-116097785D01*
X124340952Y-116145404D01*
X124912380Y-116716833D01*
X124912380Y-116097785D01*
X109164380Y-115133357D02*
X108688190Y-115466690D01*
X109164380Y-115704785D02*
X108164380Y-115704785D01*
X108164380Y-115323833D01*
X108212000Y-115228595D01*
X108259619Y-115180976D01*
X108354857Y-115133357D01*
X108497714Y-115133357D01*
X108592952Y-115180976D01*
X108640571Y-115228595D01*
X108688190Y-115323833D01*
X108688190Y-115704785D01*
X109164380Y-114180976D02*
X109164380Y-114752404D01*
X109164380Y-114466690D02*
X108164380Y-114466690D01*
X108307238Y-114561928D01*
X108402476Y-114657166D01*
X108450095Y-114752404D01*
X108164380Y-113847642D02*
X108164380Y-113180976D01*
X109164380Y-113609547D01*
X112974380Y-115133357D02*
X112498190Y-115466690D01*
X112974380Y-115704785D02*
X111974380Y-115704785D01*
X111974380Y-115323833D01*
X112022000Y-115228595D01*
X112069619Y-115180976D01*
X112164857Y-115133357D01*
X112307714Y-115133357D01*
X112402952Y-115180976D01*
X112450571Y-115228595D01*
X112498190Y-115323833D01*
X112498190Y-115704785D01*
X112974380Y-114180976D02*
X112974380Y-114752404D01*
X112974380Y-114466690D02*
X111974380Y-114466690D01*
X112117238Y-114561928D01*
X112212476Y-114657166D01*
X112260095Y-114752404D01*
X111974380Y-113323833D02*
X111974380Y-113514309D01*
X112022000Y-113609547D01*
X112069619Y-113657166D01*
X112212476Y-113752404D01*
X112402952Y-113800023D01*
X112783904Y-113800023D01*
X112879142Y-113752404D01*
X112926761Y-113704785D01*
X112974380Y-113609547D01*
X112974380Y-113419071D01*
X112926761Y-113323833D01*
X112879142Y-113276214D01*
X112783904Y-113228595D01*
X112545809Y-113228595D01*
X112450571Y-113276214D01*
X112402952Y-113323833D01*
X112355333Y-113419071D01*
X112355333Y-113609547D01*
X112402952Y-113704785D01*
X112450571Y-113752404D01*
X112545809Y-113800023D01*
X126722142Y-117211166D02*
X126769761Y-117258785D01*
X126817380Y-117401642D01*
X126817380Y-117496880D01*
X126769761Y-117639738D01*
X126674523Y-117734976D01*
X126579285Y-117782595D01*
X126388809Y-117830214D01*
X126245952Y-117830214D01*
X126055476Y-117782595D01*
X125960238Y-117734976D01*
X125865000Y-117639738D01*
X125817380Y-117496880D01*
X125817380Y-117401642D01*
X125865000Y-117258785D01*
X125912619Y-117211166D01*
X126817380Y-116734976D02*
X126817380Y-116544500D01*
X126769761Y-116449261D01*
X126722142Y-116401642D01*
X126579285Y-116306404D01*
X126388809Y-116258785D01*
X126007857Y-116258785D01*
X125912619Y-116306404D01*
X125865000Y-116354023D01*
X125817380Y-116449261D01*
X125817380Y-116639738D01*
X125865000Y-116734976D01*
X125912619Y-116782595D01*
X126007857Y-116830214D01*
X126245952Y-116830214D01*
X126341190Y-116782595D01*
X126388809Y-116734976D01*
X126436428Y-116639738D01*
X126436428Y-116449261D01*
X126388809Y-116354023D01*
X126341190Y-116306404D01*
X126245952Y-116258785D01*
X117189404Y-122898880D02*
X117189404Y-123708404D01*
X117237023Y-123803642D01*
X117284642Y-123851261D01*
X117379880Y-123898880D01*
X117570357Y-123898880D01*
X117665595Y-123851261D01*
X117713214Y-123803642D01*
X117760833Y-123708404D01*
X117760833Y-122898880D01*
X118189404Y-122994119D02*
X118237023Y-122946500D01*
X118332261Y-122898880D01*
X118570357Y-122898880D01*
X118665595Y-122946500D01*
X118713214Y-122994119D01*
X118760833Y-123089357D01*
X118760833Y-123184595D01*
X118713214Y-123327452D01*
X118141785Y-123898880D01*
X118760833Y-123898880D01*
X119379880Y-122898880D02*
X119475119Y-122898880D01*
X119570357Y-122946500D01*
X119617976Y-122994119D01*
X119665595Y-123089357D01*
X119713214Y-123279833D01*
X119713214Y-123517928D01*
X119665595Y-123708404D01*
X119617976Y-123803642D01*
X119570357Y-123851261D01*
X119475119Y-123898880D01*
X119379880Y-123898880D01*
X119284642Y-123851261D01*
X119237023Y-123803642D01*
X119189404Y-123708404D01*
X119141785Y-123517928D01*
X119141785Y-123279833D01*
X119189404Y-123089357D01*
X119237023Y-122994119D01*
X119284642Y-122946500D01*
X119379880Y-122898880D01*
X111101142Y-121324666D02*
X111148761Y-121372285D01*
X111196380Y-121515142D01*
X111196380Y-121610380D01*
X111148761Y-121753238D01*
X111053523Y-121848476D01*
X110958285Y-121896095D01*
X110767809Y-121943714D01*
X110624952Y-121943714D01*
X110434476Y-121896095D01*
X110339238Y-121848476D01*
X110244000Y-121753238D01*
X110196380Y-121610380D01*
X110196380Y-121515142D01*
X110244000Y-121372285D01*
X110291619Y-121324666D01*
X110624952Y-120753238D02*
X110577333Y-120848476D01*
X110529714Y-120896095D01*
X110434476Y-120943714D01*
X110386857Y-120943714D01*
X110291619Y-120896095D01*
X110244000Y-120848476D01*
X110196380Y-120753238D01*
X110196380Y-120562761D01*
X110244000Y-120467523D01*
X110291619Y-120419904D01*
X110386857Y-120372285D01*
X110434476Y-120372285D01*
X110529714Y-120419904D01*
X110577333Y-120467523D01*
X110624952Y-120562761D01*
X110624952Y-120753238D01*
X110672571Y-120848476D01*
X110720190Y-120896095D01*
X110815428Y-120943714D01*
X111005904Y-120943714D01*
X111101142Y-120896095D01*
X111148761Y-120848476D01*
X111196380Y-120753238D01*
X111196380Y-120562761D01*
X111148761Y-120467523D01*
X111101142Y-120419904D01*
X111005904Y-120372285D01*
X110815428Y-120372285D01*
X110720190Y-120419904D01*
X110672571Y-120467523D01*
X110624952Y-120562761D01*
M02*
